%TF.GenerationSoftware,KiCad,Pcbnew,(6.0.2)*%
%TF.CreationDate,2022-03-20T13:20:32+09:00*%
%TF.ProjectId,TSAL&VOLTAGE_INDICATOR (1),5453414c-2656-44f4-9c54-4147455f494e,rev?*%
%TF.SameCoordinates,Original*%
%TF.FileFunction,Legend,Top*%
%TF.FilePolarity,Positive*%
%FSLAX46Y46*%
G04 Gerber Fmt 4.6, Leading zero omitted, Abs format (unit mm)*
G04 Created by KiCad (PCBNEW (6.0.2)) date 2022-03-20 13:20:32*
%MOMM*%
%LPD*%
G01*
G04 APERTURE LIST*
%ADD10C,0.500000*%
%ADD11C,0.300000*%
%ADD12C,0.150000*%
%ADD13C,0.120000*%
G04 APERTURE END LIST*
D10*
X146000000Y-141500000D02*
X146000000Y-98500000D01*
X132571428Y-138904761D02*
X132571428Y-136904761D01*
X132571428Y-137857142D02*
X133714285Y-137857142D01*
X133714285Y-138904761D02*
X133714285Y-136904761D01*
X134380952Y-136904761D02*
X135047619Y-138904761D01*
X135714285Y-136904761D01*
X137809523Y-138333333D02*
X138761904Y-138333333D01*
X137619047Y-138904761D02*
X138285714Y-136904761D01*
X138952380Y-138904761D01*
X139619047Y-138904761D02*
X139619047Y-137571428D01*
X139619047Y-137952380D02*
X139714285Y-137761904D01*
X139809523Y-137666666D01*
X140000000Y-137571428D01*
X140190476Y-137571428D01*
X141619047Y-138809523D02*
X141428571Y-138904761D01*
X141047619Y-138904761D01*
X140857142Y-138809523D01*
X140761904Y-138619047D01*
X140761904Y-137857142D01*
X140857142Y-137666666D01*
X141047619Y-137571428D01*
X141428571Y-137571428D01*
X141619047Y-137666666D01*
X141714285Y-137857142D01*
X141714285Y-138047619D01*
X140761904Y-138238095D01*
X143428571Y-138904761D02*
X143428571Y-137857142D01*
X143333333Y-137666666D01*
X143142857Y-137571428D01*
X142761904Y-137571428D01*
X142571428Y-137666666D01*
X143428571Y-138809523D02*
X143238095Y-138904761D01*
X142761904Y-138904761D01*
X142571428Y-138809523D01*
X142476190Y-138619047D01*
X142476190Y-138428571D01*
X142571428Y-138238095D01*
X142761904Y-138142857D01*
X143238095Y-138142857D01*
X143428571Y-138047619D01*
X170761904Y-101904761D02*
X169809523Y-101904761D01*
X169809523Y-99904761D01*
X171142857Y-99904761D02*
X171809523Y-101904761D01*
X172476190Y-99904761D01*
X174571428Y-101333333D02*
X175523809Y-101333333D01*
X174380952Y-101904761D02*
X175047619Y-99904761D01*
X175714285Y-101904761D01*
X176380952Y-101904761D02*
X176380952Y-100571428D01*
X176380952Y-100952380D02*
X176476190Y-100761904D01*
X176571428Y-100666666D01*
X176761904Y-100571428D01*
X176952380Y-100571428D01*
X178380952Y-101809523D02*
X178190476Y-101904761D01*
X177809523Y-101904761D01*
X177619047Y-101809523D01*
X177523809Y-101619047D01*
X177523809Y-100857142D01*
X177619047Y-100666666D01*
X177809523Y-100571428D01*
X178190476Y-100571428D01*
X178380952Y-100666666D01*
X178476190Y-100857142D01*
X178476190Y-101047619D01*
X177523809Y-101238095D01*
X180190476Y-101904761D02*
X180190476Y-100857142D01*
X180095238Y-100666666D01*
X179904761Y-100571428D01*
X179523809Y-100571428D01*
X179333333Y-100666666D01*
X180190476Y-101809523D02*
X180000000Y-101904761D01*
X179523809Y-101904761D01*
X179333333Y-101809523D01*
X179238095Y-101619047D01*
X179238095Y-101428571D01*
X179333333Y-101238095D01*
X179523809Y-101142857D01*
X180000000Y-101142857D01*
X180190476Y-101047619D01*
D11*
X53071428Y-101904761D02*
X54214285Y-101904761D01*
X53642857Y-103904761D02*
X53642857Y-101904761D01*
X54785714Y-103809523D02*
X55071428Y-103904761D01*
X55547619Y-103904761D01*
X55738095Y-103809523D01*
X55833333Y-103714285D01*
X55928571Y-103523809D01*
X55928571Y-103333333D01*
X55833333Y-103142857D01*
X55738095Y-103047619D01*
X55547619Y-102952380D01*
X55166666Y-102857142D01*
X54976190Y-102761904D01*
X54880952Y-102666666D01*
X54785714Y-102476190D01*
X54785714Y-102285714D01*
X54880952Y-102095238D01*
X54976190Y-102000000D01*
X55166666Y-101904761D01*
X55642857Y-101904761D01*
X55928571Y-102000000D01*
X56690476Y-103333333D02*
X57642857Y-103333333D01*
X56500000Y-103904761D02*
X57166666Y-101904761D01*
X57833333Y-103904761D01*
X59452380Y-103904761D02*
X58500000Y-103904761D01*
X58500000Y-101904761D01*
X63071428Y-101809523D02*
X61357142Y-104380952D01*
X64976190Y-101904761D02*
X65642857Y-103904761D01*
X66309523Y-101904761D01*
X67357142Y-101904761D02*
X67738095Y-101904761D01*
X67928571Y-102000000D01*
X68119047Y-102190476D01*
X68214285Y-102571428D01*
X68214285Y-103238095D01*
X68119047Y-103619047D01*
X67928571Y-103809523D01*
X67738095Y-103904761D01*
X67357142Y-103904761D01*
X67166666Y-103809523D01*
X66976190Y-103619047D01*
X66880952Y-103238095D01*
X66880952Y-102571428D01*
X66976190Y-102190476D01*
X67166666Y-102000000D01*
X67357142Y-101904761D01*
X70023809Y-103904761D02*
X69071428Y-103904761D01*
X69071428Y-101904761D01*
X70404761Y-101904761D02*
X71547619Y-101904761D01*
X70976190Y-103904761D02*
X70976190Y-101904761D01*
X72119047Y-103333333D02*
X73071428Y-103333333D01*
X71928571Y-103904761D02*
X72595238Y-101904761D01*
X73261904Y-103904761D01*
X74976190Y-102000000D02*
X74785714Y-101904761D01*
X74500000Y-101904761D01*
X74214285Y-102000000D01*
X74023809Y-102190476D01*
X73928571Y-102380952D01*
X73833333Y-102761904D01*
X73833333Y-103047619D01*
X73928571Y-103428571D01*
X74023809Y-103619047D01*
X74214285Y-103809523D01*
X74500000Y-103904761D01*
X74690476Y-103904761D01*
X74976190Y-103809523D01*
X75071428Y-103714285D01*
X75071428Y-103047619D01*
X74690476Y-103047619D01*
X75928571Y-102857142D02*
X76595238Y-102857142D01*
X76880952Y-103904761D02*
X75928571Y-103904761D01*
X75928571Y-101904761D01*
X76880952Y-101904761D01*
X79261904Y-103904761D02*
X79261904Y-101904761D01*
X80214285Y-103904761D02*
X80214285Y-101904761D01*
X81357142Y-103904761D01*
X81357142Y-101904761D01*
X82309523Y-103904761D02*
X82309523Y-101904761D01*
X82785714Y-101904761D01*
X83071428Y-102000000D01*
X83261904Y-102190476D01*
X83357142Y-102380952D01*
X83452380Y-102761904D01*
X83452380Y-103047619D01*
X83357142Y-103428571D01*
X83261904Y-103619047D01*
X83071428Y-103809523D01*
X82785714Y-103904761D01*
X82309523Y-103904761D01*
X84309523Y-103904761D02*
X84309523Y-101904761D01*
X86404761Y-103714285D02*
X86309523Y-103809523D01*
X86023809Y-103904761D01*
X85833333Y-103904761D01*
X85547619Y-103809523D01*
X85357142Y-103619047D01*
X85261904Y-103428571D01*
X85166666Y-103047619D01*
X85166666Y-102761904D01*
X85261904Y-102380952D01*
X85357142Y-102190476D01*
X85547619Y-102000000D01*
X85833333Y-101904761D01*
X86023809Y-101904761D01*
X86309523Y-102000000D01*
X86404761Y-102095238D01*
X87166666Y-103333333D02*
X88119047Y-103333333D01*
X86976190Y-103904761D02*
X87642857Y-101904761D01*
X88309523Y-103904761D01*
X88690476Y-101904761D02*
X89833333Y-101904761D01*
X89261904Y-103904761D02*
X89261904Y-101904761D01*
X90880952Y-101904761D02*
X91261904Y-101904761D01*
X91452380Y-102000000D01*
X91642857Y-102190476D01*
X91738095Y-102571428D01*
X91738095Y-103238095D01*
X91642857Y-103619047D01*
X91452380Y-103809523D01*
X91261904Y-103904761D01*
X90880952Y-103904761D01*
X90690476Y-103809523D01*
X90500000Y-103619047D01*
X90404761Y-103238095D01*
X90404761Y-102571428D01*
X90500000Y-102190476D01*
X90690476Y-102000000D01*
X90880952Y-101904761D01*
X93738095Y-103904761D02*
X93071428Y-102952380D01*
X92595238Y-103904761D02*
X92595238Y-101904761D01*
X93357142Y-101904761D01*
X93547619Y-102000000D01*
X93642857Y-102095238D01*
X93738095Y-102285714D01*
X93738095Y-102571428D01*
X93642857Y-102761904D01*
X93547619Y-102857142D01*
X93357142Y-102952380D01*
X92595238Y-102952380D01*
D12*
X149452380Y-121738095D02*
X149452380Y-122214285D01*
X148452380Y-122214285D01*
X148452380Y-121547619D02*
X149452380Y-121214285D01*
X148452380Y-120880952D01*
X149071428Y-120547619D02*
X149071428Y-119785714D01*
X149452380Y-120166666D02*
X148690476Y-120166666D01*
X51373863Y-126414428D02*
X52135767Y-126414428D01*
X51754815Y-126795380D02*
X51754815Y-126033476D01*
X53088148Y-125795380D02*
X52611958Y-125795380D01*
X52564339Y-126271571D01*
X52611958Y-126223952D01*
X52707196Y-126176333D01*
X52945291Y-126176333D01*
X53040529Y-126223952D01*
X53088148Y-126271571D01*
X53135767Y-126366809D01*
X53135767Y-126604904D01*
X53088148Y-126700142D01*
X53040529Y-126747761D01*
X52945291Y-126795380D01*
X52707196Y-126795380D01*
X52611958Y-126747761D01*
X52564339Y-126700142D01*
X53421482Y-125795380D02*
X53754815Y-126795380D01*
X54088148Y-125795380D01*
X54707196Y-127128714D02*
X54469101Y-127128714D01*
X54469101Y-125700142D01*
X54707196Y-125700142D01*
X55088148Y-126795380D02*
X55088148Y-125795380D01*
X55088148Y-126271571D02*
X55659577Y-126271571D01*
X55659577Y-126795380D02*
X55659577Y-125795380D01*
X55992910Y-125795380D02*
X56326244Y-126795380D01*
X56659577Y-125795380D01*
X56897672Y-127128714D02*
X57135767Y-127128714D01*
X57135767Y-125700142D01*
X56897672Y-125700142D01*
X86465291Y-125071428D02*
X87227196Y-125071428D01*
X87703386Y-125452380D02*
X87703386Y-124452380D01*
X87703386Y-124928571D02*
X88274815Y-124928571D01*
X88274815Y-125452380D02*
X88274815Y-124452380D01*
X88608148Y-124452380D02*
X88941482Y-125452380D01*
X89274815Y-124452380D01*
X162190476Y-106952380D02*
X162190476Y-105952380D01*
X162190476Y-106428571D02*
X162761904Y-106428571D01*
X162761904Y-106952380D02*
X162761904Y-105952380D01*
X163095238Y-105952380D02*
X163428571Y-106952380D01*
X163761904Y-105952380D01*
X166095238Y-106952380D02*
X165619047Y-106952380D01*
X165619047Y-105952380D01*
X166285714Y-105952380D02*
X166619047Y-106952380D01*
X166952380Y-105952380D01*
X86945291Y-116414428D02*
X87707196Y-116414428D01*
X87326244Y-116795380D02*
X87326244Y-116033476D01*
X88183386Y-116795380D02*
X88183386Y-115795380D01*
X88183386Y-116271571D02*
X88754815Y-116271571D01*
X88754815Y-116795380D02*
X88754815Y-115795380D01*
X89088148Y-115795380D02*
X89421482Y-116795380D01*
X89754815Y-115795380D01*
X150452380Y-117738095D02*
X150452380Y-118214285D01*
X149452380Y-118214285D01*
X149452380Y-117547619D02*
X150452380Y-117214285D01*
X149452380Y-116880952D01*
X150071428Y-116547619D02*
X150071428Y-115785714D01*
%TO.C,J2[GRN LED]*%
X160738095Y-115452380D02*
X160738095Y-116166666D01*
X160690476Y-116309523D01*
X160595238Y-116404761D01*
X160452380Y-116452380D01*
X160357142Y-116452380D01*
X161166666Y-115547619D02*
X161214285Y-115500000D01*
X161309523Y-115452380D01*
X161547619Y-115452380D01*
X161642857Y-115500000D01*
X161690476Y-115547619D01*
X161738095Y-115642857D01*
X161738095Y-115738095D01*
X161690476Y-115880952D01*
X161119047Y-116452380D01*
X161738095Y-116452380D01*
X162452380Y-116785714D02*
X162214285Y-116785714D01*
X162214285Y-115357142D01*
X162452380Y-115357142D01*
X163357142Y-115500000D02*
X163261904Y-115452380D01*
X163119047Y-115452380D01*
X162976190Y-115500000D01*
X162880952Y-115595238D01*
X162833333Y-115690476D01*
X162785714Y-115880952D01*
X162785714Y-116023809D01*
X162833333Y-116214285D01*
X162880952Y-116309523D01*
X162976190Y-116404761D01*
X163119047Y-116452380D01*
X163214285Y-116452380D01*
X163357142Y-116404761D01*
X163404761Y-116357142D01*
X163404761Y-116023809D01*
X163214285Y-116023809D01*
X164404761Y-116452380D02*
X164071428Y-115976190D01*
X163833333Y-116452380D02*
X163833333Y-115452380D01*
X164214285Y-115452380D01*
X164309523Y-115500000D01*
X164357142Y-115547619D01*
X164404761Y-115642857D01*
X164404761Y-115785714D01*
X164357142Y-115880952D01*
X164309523Y-115928571D01*
X164214285Y-115976190D01*
X163833333Y-115976190D01*
X164833333Y-116452380D02*
X164833333Y-115452380D01*
X165404761Y-116452380D01*
X165404761Y-115452380D01*
X167119047Y-116452380D02*
X166642857Y-116452380D01*
X166642857Y-115452380D01*
X167452380Y-115928571D02*
X167785714Y-115928571D01*
X167928571Y-116452380D02*
X167452380Y-116452380D01*
X167452380Y-115452380D01*
X167928571Y-115452380D01*
X168357142Y-116452380D02*
X168357142Y-115452380D01*
X168595238Y-115452380D01*
X168738095Y-115500000D01*
X168833333Y-115595238D01*
X168880952Y-115690476D01*
X168928571Y-115880952D01*
X168928571Y-116023809D01*
X168880952Y-116214285D01*
X168833333Y-116309523D01*
X168738095Y-116404761D01*
X168595238Y-116452380D01*
X168357142Y-116452380D01*
X169261904Y-116785714D02*
X169500000Y-116785714D01*
X169500000Y-115357142D01*
X169261904Y-115357142D01*
%TO.C,PS1*%
X97785714Y-140452380D02*
X97785714Y-139452380D01*
X98166666Y-139452380D01*
X98261904Y-139500000D01*
X98309523Y-139547619D01*
X98357142Y-139642857D01*
X98357142Y-139785714D01*
X98309523Y-139880952D01*
X98261904Y-139928571D01*
X98166666Y-139976190D01*
X97785714Y-139976190D01*
X98738095Y-140404761D02*
X98880952Y-140452380D01*
X99119047Y-140452380D01*
X99214285Y-140404761D01*
X99261904Y-140357142D01*
X99309523Y-140261904D01*
X99309523Y-140166666D01*
X99261904Y-140071428D01*
X99214285Y-140023809D01*
X99119047Y-139976190D01*
X98928571Y-139928571D01*
X98833333Y-139880952D01*
X98785714Y-139833333D01*
X98738095Y-139738095D01*
X98738095Y-139642857D01*
X98785714Y-139547619D01*
X98833333Y-139500000D01*
X98928571Y-139452380D01*
X99166666Y-139452380D01*
X99309523Y-139500000D01*
X100261904Y-140452380D02*
X99690476Y-140452380D01*
X99976190Y-140452380D02*
X99976190Y-139452380D01*
X99880952Y-139595238D01*
X99785714Y-139690476D01*
X99690476Y-139738095D01*
%TO.C,R13*%
X174357142Y-112342380D02*
X174023809Y-111866190D01*
X173785714Y-112342380D02*
X173785714Y-111342380D01*
X174166666Y-111342380D01*
X174261904Y-111390000D01*
X174309523Y-111437619D01*
X174357142Y-111532857D01*
X174357142Y-111675714D01*
X174309523Y-111770952D01*
X174261904Y-111818571D01*
X174166666Y-111866190D01*
X173785714Y-111866190D01*
X175309523Y-112342380D02*
X174738095Y-112342380D01*
X175023809Y-112342380D02*
X175023809Y-111342380D01*
X174928571Y-111485238D01*
X174833333Y-111580476D01*
X174738095Y-111628095D01*
X175642857Y-111342380D02*
X176261904Y-111342380D01*
X175928571Y-111723333D01*
X176071428Y-111723333D01*
X176166666Y-111770952D01*
X176214285Y-111818571D01*
X176261904Y-111913809D01*
X176261904Y-112151904D01*
X176214285Y-112247142D01*
X176166666Y-112294761D01*
X176071428Y-112342380D01*
X175785714Y-112342380D01*
X175690476Y-112294761D01*
X175642857Y-112247142D01*
%TO.C,R15*%
X63810980Y-124985857D02*
X63334790Y-125319190D01*
X63810980Y-125557285D02*
X62810980Y-125557285D01*
X62810980Y-125176333D01*
X62858600Y-125081095D01*
X62906219Y-125033476D01*
X63001457Y-124985857D01*
X63144314Y-124985857D01*
X63239552Y-125033476D01*
X63287171Y-125081095D01*
X63334790Y-125176333D01*
X63334790Y-125557285D01*
X63810980Y-124033476D02*
X63810980Y-124604904D01*
X63810980Y-124319190D02*
X62810980Y-124319190D01*
X62953838Y-124414428D01*
X63049076Y-124509666D01*
X63096695Y-124604904D01*
X62810980Y-123128714D02*
X62810980Y-123604904D01*
X63287171Y-123652523D01*
X63239552Y-123604904D01*
X63191933Y-123509666D01*
X63191933Y-123271571D01*
X63239552Y-123176333D01*
X63287171Y-123128714D01*
X63382409Y-123081095D01*
X63620504Y-123081095D01*
X63715742Y-123128714D01*
X63763361Y-123176333D01*
X63810980Y-123271571D01*
X63810980Y-123509666D01*
X63763361Y-123604904D01*
X63715742Y-123652523D01*
%TO.C,R11*%
X136532380Y-107642857D02*
X136056190Y-107976190D01*
X136532380Y-108214285D02*
X135532380Y-108214285D01*
X135532380Y-107833333D01*
X135580000Y-107738095D01*
X135627619Y-107690476D01*
X135722857Y-107642857D01*
X135865714Y-107642857D01*
X135960952Y-107690476D01*
X136008571Y-107738095D01*
X136056190Y-107833333D01*
X136056190Y-108214285D01*
X136532380Y-106690476D02*
X136532380Y-107261904D01*
X136532380Y-106976190D02*
X135532380Y-106976190D01*
X135675238Y-107071428D01*
X135770476Y-107166666D01*
X135818095Y-107261904D01*
X136532380Y-105738095D02*
X136532380Y-106309523D01*
X136532380Y-106023809D02*
X135532380Y-106023809D01*
X135675238Y-106119047D01*
X135770476Y-106214285D01*
X135818095Y-106309523D01*
%TO.C,D3*%
X54110980Y-131311095D02*
X53110980Y-131311095D01*
X53110980Y-131073000D01*
X53158600Y-130930142D01*
X53253838Y-130834904D01*
X53349076Y-130787285D01*
X53539552Y-130739666D01*
X53682409Y-130739666D01*
X53872885Y-130787285D01*
X53968123Y-130834904D01*
X54063361Y-130930142D01*
X54110980Y-131073000D01*
X54110980Y-131311095D01*
X53110980Y-130406333D02*
X53110980Y-129787285D01*
X53491933Y-130120619D01*
X53491933Y-129977761D01*
X53539552Y-129882523D01*
X53587171Y-129834904D01*
X53682409Y-129787285D01*
X53920504Y-129787285D01*
X54015742Y-129834904D01*
X54063361Y-129882523D01*
X54110980Y-129977761D01*
X54110980Y-130263476D01*
X54063361Y-130358714D01*
X54015742Y-130406333D01*
%TO.C,R10*%
X134372380Y-107642857D02*
X133896190Y-107976190D01*
X134372380Y-108214285D02*
X133372380Y-108214285D01*
X133372380Y-107833333D01*
X133420000Y-107738095D01*
X133467619Y-107690476D01*
X133562857Y-107642857D01*
X133705714Y-107642857D01*
X133800952Y-107690476D01*
X133848571Y-107738095D01*
X133896190Y-107833333D01*
X133896190Y-108214285D01*
X134372380Y-106690476D02*
X134372380Y-107261904D01*
X134372380Y-106976190D02*
X133372380Y-106976190D01*
X133515238Y-107071428D01*
X133610476Y-107166666D01*
X133658095Y-107261904D01*
X133372380Y-106071428D02*
X133372380Y-105976190D01*
X133420000Y-105880952D01*
X133467619Y-105833333D01*
X133562857Y-105785714D01*
X133753333Y-105738095D01*
X133991428Y-105738095D01*
X134181904Y-105785714D01*
X134277142Y-105833333D01*
X134324761Y-105880952D01*
X134372380Y-105976190D01*
X134372380Y-106071428D01*
X134324761Y-106166666D01*
X134277142Y-106214285D01*
X134181904Y-106261904D01*
X133991428Y-106309523D01*
X133753333Y-106309523D01*
X133562857Y-106261904D01*
X133467619Y-106214285D01*
X133420000Y-106166666D01*
X133372380Y-106071428D01*
%TO.C,D4*%
X151332380Y-120468095D02*
X150332380Y-120468095D01*
X150332380Y-120230000D01*
X150380000Y-120087142D01*
X150475238Y-119991904D01*
X150570476Y-119944285D01*
X150760952Y-119896666D01*
X150903809Y-119896666D01*
X151094285Y-119944285D01*
X151189523Y-119991904D01*
X151284761Y-120087142D01*
X151332380Y-120230000D01*
X151332380Y-120468095D01*
X150665714Y-119039523D02*
X151332380Y-119039523D01*
X150284761Y-119277619D02*
X150999047Y-119515714D01*
X150999047Y-118896666D01*
%TO.C,R_Sense1*%
X60040504Y-119215380D02*
X59707171Y-118739190D01*
X59469076Y-119215380D02*
X59469076Y-118215380D01*
X59850028Y-118215380D01*
X59945266Y-118263000D01*
X59992885Y-118310619D01*
X60040504Y-118405857D01*
X60040504Y-118548714D01*
X59992885Y-118643952D01*
X59945266Y-118691571D01*
X59850028Y-118739190D01*
X59469076Y-118739190D01*
X60230980Y-119310619D02*
X60992885Y-119310619D01*
X61183361Y-119167761D02*
X61326219Y-119215380D01*
X61564314Y-119215380D01*
X61659552Y-119167761D01*
X61707171Y-119120142D01*
X61754790Y-119024904D01*
X61754790Y-118929666D01*
X61707171Y-118834428D01*
X61659552Y-118786809D01*
X61564314Y-118739190D01*
X61373838Y-118691571D01*
X61278600Y-118643952D01*
X61230980Y-118596333D01*
X61183361Y-118501095D01*
X61183361Y-118405857D01*
X61230980Y-118310619D01*
X61278600Y-118263000D01*
X61373838Y-118215380D01*
X61611933Y-118215380D01*
X61754790Y-118263000D01*
X62564314Y-119167761D02*
X62469076Y-119215380D01*
X62278600Y-119215380D01*
X62183361Y-119167761D01*
X62135742Y-119072523D01*
X62135742Y-118691571D01*
X62183361Y-118596333D01*
X62278600Y-118548714D01*
X62469076Y-118548714D01*
X62564314Y-118596333D01*
X62611933Y-118691571D01*
X62611933Y-118786809D01*
X62135742Y-118882047D01*
X63040504Y-118548714D02*
X63040504Y-119215380D01*
X63040504Y-118643952D02*
X63088123Y-118596333D01*
X63183361Y-118548714D01*
X63326219Y-118548714D01*
X63421457Y-118596333D01*
X63469076Y-118691571D01*
X63469076Y-119215380D01*
X63897647Y-119167761D02*
X63992885Y-119215380D01*
X64183361Y-119215380D01*
X64278600Y-119167761D01*
X64326219Y-119072523D01*
X64326219Y-119024904D01*
X64278600Y-118929666D01*
X64183361Y-118882047D01*
X64040504Y-118882047D01*
X63945266Y-118834428D01*
X63897647Y-118739190D01*
X63897647Y-118691571D01*
X63945266Y-118596333D01*
X64040504Y-118548714D01*
X64183361Y-118548714D01*
X64278600Y-118596333D01*
X65135742Y-119167761D02*
X65040504Y-119215380D01*
X64850028Y-119215380D01*
X64754790Y-119167761D01*
X64707171Y-119072523D01*
X64707171Y-118691571D01*
X64754790Y-118596333D01*
X64850028Y-118548714D01*
X65040504Y-118548714D01*
X65135742Y-118596333D01*
X65183361Y-118691571D01*
X65183361Y-118786809D01*
X64707171Y-118882047D01*
X66135742Y-119215380D02*
X65564314Y-119215380D01*
X65850028Y-119215380D02*
X65850028Y-118215380D01*
X65754790Y-118358238D01*
X65659552Y-118453476D01*
X65564314Y-118501095D01*
%TO.C,R5*%
X98453333Y-124369880D02*
X98120000Y-123893690D01*
X97881904Y-124369880D02*
X97881904Y-123369880D01*
X98262857Y-123369880D01*
X98358095Y-123417500D01*
X98405714Y-123465119D01*
X98453333Y-123560357D01*
X98453333Y-123703214D01*
X98405714Y-123798452D01*
X98358095Y-123846071D01*
X98262857Y-123893690D01*
X97881904Y-123893690D01*
X99358095Y-123369880D02*
X98881904Y-123369880D01*
X98834285Y-123846071D01*
X98881904Y-123798452D01*
X98977142Y-123750833D01*
X99215238Y-123750833D01*
X99310476Y-123798452D01*
X99358095Y-123846071D01*
X99405714Y-123941309D01*
X99405714Y-124179404D01*
X99358095Y-124274642D01*
X99310476Y-124322261D01*
X99215238Y-124369880D01*
X98977142Y-124369880D01*
X98881904Y-124322261D01*
X98834285Y-124274642D01*
%TO.C,R9*%
X117833333Y-126372380D02*
X117500000Y-125896190D01*
X117261904Y-126372380D02*
X117261904Y-125372380D01*
X117642857Y-125372380D01*
X117738095Y-125420000D01*
X117785714Y-125467619D01*
X117833333Y-125562857D01*
X117833333Y-125705714D01*
X117785714Y-125800952D01*
X117738095Y-125848571D01*
X117642857Y-125896190D01*
X117261904Y-125896190D01*
X118309523Y-126372380D02*
X118500000Y-126372380D01*
X118595238Y-126324761D01*
X118642857Y-126277142D01*
X118738095Y-126134285D01*
X118785714Y-125943809D01*
X118785714Y-125562857D01*
X118738095Y-125467619D01*
X118690476Y-125420000D01*
X118595238Y-125372380D01*
X118404761Y-125372380D01*
X118309523Y-125420000D01*
X118261904Y-125467619D01*
X118214285Y-125562857D01*
X118214285Y-125800952D01*
X118261904Y-125896190D01*
X118309523Y-125943809D01*
X118404761Y-125991428D01*
X118595238Y-125991428D01*
X118690476Y-125943809D01*
X118738095Y-125896190D01*
X118785714Y-125800952D01*
%TO.C,C2*%
X122833333Y-115229642D02*
X122785714Y-115277261D01*
X122642857Y-115324880D01*
X122547619Y-115324880D01*
X122404761Y-115277261D01*
X122309523Y-115182023D01*
X122261904Y-115086785D01*
X122214285Y-114896309D01*
X122214285Y-114753452D01*
X122261904Y-114562976D01*
X122309523Y-114467738D01*
X122404761Y-114372500D01*
X122547619Y-114324880D01*
X122642857Y-114324880D01*
X122785714Y-114372500D01*
X122833333Y-114420119D01*
X123214285Y-114420119D02*
X123261904Y-114372500D01*
X123357142Y-114324880D01*
X123595238Y-114324880D01*
X123690476Y-114372500D01*
X123738095Y-114420119D01*
X123785714Y-114515357D01*
X123785714Y-114610595D01*
X123738095Y-114753452D01*
X123166666Y-115324880D01*
X123785714Y-115324880D01*
%TO.C,Q3*%
X166195319Y-122328838D02*
X166147700Y-122424076D01*
X166052461Y-122519314D01*
X165909604Y-122662171D01*
X165861985Y-122757409D01*
X165861985Y-122852647D01*
X166100080Y-122805028D02*
X166052461Y-122900266D01*
X165957223Y-122995504D01*
X165766747Y-123043123D01*
X165433414Y-123043123D01*
X165242938Y-122995504D01*
X165147700Y-122900266D01*
X165100080Y-122805028D01*
X165100080Y-122614552D01*
X165147700Y-122519314D01*
X165242938Y-122424076D01*
X165433414Y-122376457D01*
X165766747Y-122376457D01*
X165957223Y-122424076D01*
X166052461Y-122519314D01*
X166100080Y-122614552D01*
X166100080Y-122805028D01*
X165100080Y-122043123D02*
X165100080Y-121424076D01*
X165481033Y-121757409D01*
X165481033Y-121614552D01*
X165528652Y-121519314D01*
X165576271Y-121471695D01*
X165671509Y-121424076D01*
X165909604Y-121424076D01*
X166004842Y-121471695D01*
X166052461Y-121519314D01*
X166100080Y-121614552D01*
X166100080Y-121900266D01*
X166052461Y-121995504D01*
X166004842Y-122043123D01*
X174642857Y-129452380D02*
X174642857Y-128452380D01*
X175690476Y-129452380D02*
X175357142Y-128976190D01*
X175119047Y-129452380D02*
X175119047Y-128452380D01*
X175500000Y-128452380D01*
X175595238Y-128500000D01*
X175642857Y-128547619D01*
X175690476Y-128642857D01*
X175690476Y-128785714D01*
X175642857Y-128880952D01*
X175595238Y-128928571D01*
X175500000Y-128976190D01*
X175119047Y-128976190D01*
X176452380Y-128928571D02*
X176119047Y-128928571D01*
X176119047Y-129452380D02*
X176119047Y-128452380D01*
X176595238Y-128452380D01*
X177404761Y-128452380D02*
X177214285Y-128452380D01*
X177119047Y-128500000D01*
X177071428Y-128547619D01*
X176976190Y-128690476D01*
X176928571Y-128880952D01*
X176928571Y-129261904D01*
X176976190Y-129357142D01*
X177023809Y-129404761D01*
X177119047Y-129452380D01*
X177309523Y-129452380D01*
X177404761Y-129404761D01*
X177452380Y-129357142D01*
X177500000Y-129261904D01*
X177500000Y-129023809D01*
X177452380Y-128928571D01*
X177404761Y-128880952D01*
X177309523Y-128833333D01*
X177119047Y-128833333D01*
X177023809Y-128880952D01*
X176976190Y-128928571D01*
X176928571Y-129023809D01*
X178357142Y-128785714D02*
X178357142Y-129452380D01*
X178119047Y-128404761D02*
X177880952Y-129119047D01*
X178500000Y-129119047D01*
X179071428Y-128452380D02*
X179166666Y-128452380D01*
X179261904Y-128500000D01*
X179309523Y-128547619D01*
X179357142Y-128642857D01*
X179404761Y-128833333D01*
X179404761Y-129071428D01*
X179357142Y-129261904D01*
X179309523Y-129357142D01*
X179261904Y-129404761D01*
X179166666Y-129452380D01*
X179071428Y-129452380D01*
X178976190Y-129404761D01*
X178928571Y-129357142D01*
X178880952Y-129261904D01*
X178833333Y-129071428D01*
X178833333Y-128833333D01*
X178880952Y-128642857D01*
X178928571Y-128547619D01*
X178976190Y-128500000D01*
X179071428Y-128452380D01*
X158952380Y-118000000D02*
X159190476Y-118000000D01*
X159095238Y-118238095D02*
X159190476Y-118000000D01*
X159095238Y-117761904D01*
X159380952Y-118142857D02*
X159190476Y-118000000D01*
X159380952Y-117857142D01*
%TO.C,R1*%
X98453333Y-108449880D02*
X98120000Y-107973690D01*
X97881904Y-108449880D02*
X97881904Y-107449880D01*
X98262857Y-107449880D01*
X98358095Y-107497500D01*
X98405714Y-107545119D01*
X98453333Y-107640357D01*
X98453333Y-107783214D01*
X98405714Y-107878452D01*
X98358095Y-107926071D01*
X98262857Y-107973690D01*
X97881904Y-107973690D01*
X99405714Y-108449880D02*
X98834285Y-108449880D01*
X99120000Y-108449880D02*
X99120000Y-107449880D01*
X99024761Y-107592738D01*
X98929523Y-107687976D01*
X98834285Y-107735595D01*
%TO.C,R7*%
X127333333Y-127032380D02*
X127000000Y-126556190D01*
X126761904Y-127032380D02*
X126761904Y-126032380D01*
X127142857Y-126032380D01*
X127238095Y-126080000D01*
X127285714Y-126127619D01*
X127333333Y-126222857D01*
X127333333Y-126365714D01*
X127285714Y-126460952D01*
X127238095Y-126508571D01*
X127142857Y-126556190D01*
X126761904Y-126556190D01*
X127666666Y-126032380D02*
X128333333Y-126032380D01*
X127904761Y-127032380D01*
%TO.C,R2*%
X98143333Y-112369880D02*
X97810000Y-111893690D01*
X97571904Y-112369880D02*
X97571904Y-111369880D01*
X97952857Y-111369880D01*
X98048095Y-111417500D01*
X98095714Y-111465119D01*
X98143333Y-111560357D01*
X98143333Y-111703214D01*
X98095714Y-111798452D01*
X98048095Y-111846071D01*
X97952857Y-111893690D01*
X97571904Y-111893690D01*
X98524285Y-111465119D02*
X98571904Y-111417500D01*
X98667142Y-111369880D01*
X98905238Y-111369880D01*
X99000476Y-111417500D01*
X99048095Y-111465119D01*
X99095714Y-111560357D01*
X99095714Y-111655595D01*
X99048095Y-111798452D01*
X98476666Y-112369880D01*
X99095714Y-112369880D01*
%TO.C,R6*%
X115833333Y-127032380D02*
X115500000Y-126556190D01*
X115261904Y-127032380D02*
X115261904Y-126032380D01*
X115642857Y-126032380D01*
X115738095Y-126080000D01*
X115785714Y-126127619D01*
X115833333Y-126222857D01*
X115833333Y-126365714D01*
X115785714Y-126460952D01*
X115738095Y-126508571D01*
X115642857Y-126556190D01*
X115261904Y-126556190D01*
X116690476Y-126032380D02*
X116500000Y-126032380D01*
X116404761Y-126080000D01*
X116357142Y-126127619D01*
X116261904Y-126270476D01*
X116214285Y-126460952D01*
X116214285Y-126841904D01*
X116261904Y-126937142D01*
X116309523Y-126984761D01*
X116404761Y-127032380D01*
X116595238Y-127032380D01*
X116690476Y-126984761D01*
X116738095Y-126937142D01*
X116785714Y-126841904D01*
X116785714Y-126603809D01*
X116738095Y-126508571D01*
X116690476Y-126460952D01*
X116595238Y-126413333D01*
X116404761Y-126413333D01*
X116309523Y-126460952D01*
X116261904Y-126508571D01*
X116214285Y-126603809D01*
%TO.C,C1*%
X111677142Y-109266666D02*
X111724761Y-109314285D01*
X111772380Y-109457142D01*
X111772380Y-109552380D01*
X111724761Y-109695238D01*
X111629523Y-109790476D01*
X111534285Y-109838095D01*
X111343809Y-109885714D01*
X111200952Y-109885714D01*
X111010476Y-109838095D01*
X110915238Y-109790476D01*
X110820000Y-109695238D01*
X110772380Y-109552380D01*
X110772380Y-109457142D01*
X110820000Y-109314285D01*
X110867619Y-109266666D01*
X111772380Y-108314285D02*
X111772380Y-108885714D01*
X111772380Y-108600000D02*
X110772380Y-108600000D01*
X110915238Y-108695238D01*
X111010476Y-108790476D01*
X111058095Y-108885714D01*
%TO.C,Q1*%
X180195319Y-122328838D02*
X180147700Y-122424076D01*
X180052461Y-122519314D01*
X179909604Y-122662171D01*
X179861985Y-122757409D01*
X179861985Y-122852647D01*
X180100080Y-122805028D02*
X180052461Y-122900266D01*
X179957223Y-122995504D01*
X179766747Y-123043123D01*
X179433414Y-123043123D01*
X179242938Y-122995504D01*
X179147700Y-122900266D01*
X179100080Y-122805028D01*
X179100080Y-122614552D01*
X179147700Y-122519314D01*
X179242938Y-122424076D01*
X179433414Y-122376457D01*
X179766747Y-122376457D01*
X179957223Y-122424076D01*
X180052461Y-122519314D01*
X180100080Y-122614552D01*
X180100080Y-122805028D01*
X180100080Y-121424076D02*
X180100080Y-121995504D01*
X180100080Y-121709790D02*
X179100080Y-121709790D01*
X179242938Y-121805028D01*
X179338176Y-121900266D01*
X179385795Y-121995504D01*
X160642857Y-129452380D02*
X160642857Y-128452380D01*
X161690476Y-129452380D02*
X161357142Y-128976190D01*
X161119047Y-129452380D02*
X161119047Y-128452380D01*
X161500000Y-128452380D01*
X161595238Y-128500000D01*
X161642857Y-128547619D01*
X161690476Y-128642857D01*
X161690476Y-128785714D01*
X161642857Y-128880952D01*
X161595238Y-128928571D01*
X161500000Y-128976190D01*
X161119047Y-128976190D01*
X162452380Y-128928571D02*
X162119047Y-128928571D01*
X162119047Y-129452380D02*
X162119047Y-128452380D01*
X162595238Y-128452380D01*
X163404761Y-128452380D02*
X163214285Y-128452380D01*
X163119047Y-128500000D01*
X163071428Y-128547619D01*
X162976190Y-128690476D01*
X162928571Y-128880952D01*
X162928571Y-129261904D01*
X162976190Y-129357142D01*
X163023809Y-129404761D01*
X163119047Y-129452380D01*
X163309523Y-129452380D01*
X163404761Y-129404761D01*
X163452380Y-129357142D01*
X163500000Y-129261904D01*
X163500000Y-129023809D01*
X163452380Y-128928571D01*
X163404761Y-128880952D01*
X163309523Y-128833333D01*
X163119047Y-128833333D01*
X163023809Y-128880952D01*
X162976190Y-128928571D01*
X162928571Y-129023809D01*
X164357142Y-128785714D02*
X164357142Y-129452380D01*
X164119047Y-128404761D02*
X163880952Y-129119047D01*
X164500000Y-129119047D01*
X165071428Y-128452380D02*
X165166666Y-128452380D01*
X165261904Y-128500000D01*
X165309523Y-128547619D01*
X165357142Y-128642857D01*
X165404761Y-128833333D01*
X165404761Y-129071428D01*
X165357142Y-129261904D01*
X165309523Y-129357142D01*
X165261904Y-129404761D01*
X165166666Y-129452380D01*
X165071428Y-129452380D01*
X164976190Y-129404761D01*
X164928571Y-129357142D01*
X164880952Y-129261904D01*
X164833333Y-129071428D01*
X164833333Y-128833333D01*
X164880952Y-128642857D01*
X164928571Y-128547619D01*
X164976190Y-128500000D01*
X165071428Y-128452380D01*
X172952380Y-118000000D02*
X173190476Y-118000000D01*
X173095238Y-118238095D02*
X173190476Y-118000000D01*
X173095238Y-117761904D01*
X173380952Y-118142857D02*
X173190476Y-118000000D01*
X173380952Y-117857142D01*
%TO.C,U2*%
X138238095Y-125452380D02*
X138238095Y-126261904D01*
X138285714Y-126357142D01*
X138333333Y-126404761D01*
X138428571Y-126452380D01*
X138619047Y-126452380D01*
X138714285Y-126404761D01*
X138761904Y-126357142D01*
X138809523Y-126261904D01*
X138809523Y-125452380D01*
X139238095Y-125547619D02*
X139285714Y-125500000D01*
X139380952Y-125452380D01*
X139619047Y-125452380D01*
X139714285Y-125500000D01*
X139761904Y-125547619D01*
X139809523Y-125642857D01*
X139809523Y-125738095D01*
X139761904Y-125880952D01*
X139190476Y-126452380D01*
X139809523Y-126452380D01*
X136023809Y-127785714D02*
X136023809Y-128452380D01*
X135785714Y-127404761D02*
X135547619Y-128119047D01*
X136166666Y-128119047D01*
X136547619Y-128452380D02*
X136547619Y-127452380D01*
X137119047Y-128452380D01*
X137119047Y-127452380D01*
X137500000Y-127452380D02*
X138119047Y-127452380D01*
X137785714Y-127833333D01*
X137928571Y-127833333D01*
X138023809Y-127880952D01*
X138071428Y-127928571D01*
X138119047Y-128023809D01*
X138119047Y-128261904D01*
X138071428Y-128357142D01*
X138023809Y-128404761D01*
X137928571Y-128452380D01*
X137642857Y-128452380D01*
X137547619Y-128404761D01*
X137500000Y-128357142D01*
X139023809Y-127452380D02*
X138547619Y-127452380D01*
X138500000Y-127928571D01*
X138547619Y-127880952D01*
X138642857Y-127833333D01*
X138880952Y-127833333D01*
X138976190Y-127880952D01*
X139023809Y-127928571D01*
X139071428Y-128023809D01*
X139071428Y-128261904D01*
X139023809Y-128357142D01*
X138976190Y-128404761D01*
X138880952Y-128452380D01*
X138642857Y-128452380D01*
X138547619Y-128404761D01*
X138500000Y-128357142D01*
X139261904Y-128547619D02*
X140023809Y-128547619D01*
X140738095Y-128452380D02*
X140261904Y-128452380D01*
X140261904Y-127452380D01*
X140928571Y-127452380D02*
X141500000Y-127452380D01*
X141214285Y-128452380D02*
X141214285Y-127452380D01*
X142023809Y-127452380D02*
X142214285Y-127452380D01*
X142309523Y-127500000D01*
X142404761Y-127595238D01*
X142452380Y-127785714D01*
X142452380Y-128119047D01*
X142404761Y-128309523D01*
X142309523Y-128404761D01*
X142214285Y-128452380D01*
X142023809Y-128452380D01*
X141928571Y-128404761D01*
X141833333Y-128309523D01*
X141785714Y-128119047D01*
X141785714Y-127785714D01*
X141833333Y-127595238D01*
X141928571Y-127500000D01*
X142023809Y-127452380D01*
X135190000Y-116401080D02*
X135190000Y-116639176D01*
X134951904Y-116543938D02*
X135190000Y-116639176D01*
X135428095Y-116543938D01*
X135047142Y-116829652D02*
X135190000Y-116639176D01*
X135332857Y-116829652D01*
%TO.C,R14*%
X75150980Y-128795857D02*
X74674790Y-129129190D01*
X75150980Y-129367285D02*
X74150980Y-129367285D01*
X74150980Y-128986333D01*
X74198600Y-128891095D01*
X74246219Y-128843476D01*
X74341457Y-128795857D01*
X74484314Y-128795857D01*
X74579552Y-128843476D01*
X74627171Y-128891095D01*
X74674790Y-128986333D01*
X74674790Y-129367285D01*
X75150980Y-127843476D02*
X75150980Y-128414904D01*
X75150980Y-128129190D02*
X74150980Y-128129190D01*
X74293838Y-128224428D01*
X74389076Y-128319666D01*
X74436695Y-128414904D01*
X74484314Y-126986333D02*
X75150980Y-126986333D01*
X74103361Y-127224428D02*
X74817647Y-127462523D01*
X74817647Y-126843476D01*
%TO.C,Q2*%
X173195319Y-122328838D02*
X173147700Y-122424076D01*
X173052461Y-122519314D01*
X172909604Y-122662171D01*
X172861985Y-122757409D01*
X172861985Y-122852647D01*
X173100080Y-122805028D02*
X173052461Y-122900266D01*
X172957223Y-122995504D01*
X172766747Y-123043123D01*
X172433414Y-123043123D01*
X172242938Y-122995504D01*
X172147700Y-122900266D01*
X172100080Y-122805028D01*
X172100080Y-122614552D01*
X172147700Y-122519314D01*
X172242938Y-122424076D01*
X172433414Y-122376457D01*
X172766747Y-122376457D01*
X172957223Y-122424076D01*
X173052461Y-122519314D01*
X173100080Y-122614552D01*
X173100080Y-122805028D01*
X172195319Y-121995504D02*
X172147700Y-121947885D01*
X172100080Y-121852647D01*
X172100080Y-121614552D01*
X172147700Y-121519314D01*
X172195319Y-121471695D01*
X172290557Y-121424076D01*
X172385795Y-121424076D01*
X172528652Y-121471695D01*
X173100080Y-122043123D01*
X173100080Y-121424076D01*
X167642857Y-129452380D02*
X167642857Y-128452380D01*
X168690476Y-129452380D02*
X168357142Y-128976190D01*
X168119047Y-129452380D02*
X168119047Y-128452380D01*
X168500000Y-128452380D01*
X168595238Y-128500000D01*
X168642857Y-128547619D01*
X168690476Y-128642857D01*
X168690476Y-128785714D01*
X168642857Y-128880952D01*
X168595238Y-128928571D01*
X168500000Y-128976190D01*
X168119047Y-128976190D01*
X169452380Y-128928571D02*
X169119047Y-128928571D01*
X169119047Y-129452380D02*
X169119047Y-128452380D01*
X169595238Y-128452380D01*
X170404761Y-128452380D02*
X170214285Y-128452380D01*
X170119047Y-128500000D01*
X170071428Y-128547619D01*
X169976190Y-128690476D01*
X169928571Y-128880952D01*
X169928571Y-129261904D01*
X169976190Y-129357142D01*
X170023809Y-129404761D01*
X170119047Y-129452380D01*
X170309523Y-129452380D01*
X170404761Y-129404761D01*
X170452380Y-129357142D01*
X170500000Y-129261904D01*
X170500000Y-129023809D01*
X170452380Y-128928571D01*
X170404761Y-128880952D01*
X170309523Y-128833333D01*
X170119047Y-128833333D01*
X170023809Y-128880952D01*
X169976190Y-128928571D01*
X169928571Y-129023809D01*
X171357142Y-128785714D02*
X171357142Y-129452380D01*
X171119047Y-128404761D02*
X170880952Y-129119047D01*
X171500000Y-129119047D01*
X172071428Y-128452380D02*
X172166666Y-128452380D01*
X172261904Y-128500000D01*
X172309523Y-128547619D01*
X172357142Y-128642857D01*
X172404761Y-128833333D01*
X172404761Y-129071428D01*
X172357142Y-129261904D01*
X172309523Y-129357142D01*
X172261904Y-129404761D01*
X172166666Y-129452380D01*
X172071428Y-129452380D01*
X171976190Y-129404761D01*
X171928571Y-129357142D01*
X171880952Y-129261904D01*
X171833333Y-129071428D01*
X171833333Y-128833333D01*
X171880952Y-128642857D01*
X171928571Y-128547619D01*
X171976190Y-128500000D01*
X172071428Y-128452380D01*
X165952380Y-118000000D02*
X166190476Y-118000000D01*
X166095238Y-118238095D02*
X166190476Y-118000000D01*
X166095238Y-117761904D01*
X166380952Y-118142857D02*
X166190476Y-118000000D01*
X166380952Y-117857142D01*
%TO.C,R8*%
X126833333Y-122452380D02*
X126500000Y-121976190D01*
X126261904Y-122452380D02*
X126261904Y-121452380D01*
X126642857Y-121452380D01*
X126738095Y-121500000D01*
X126785714Y-121547619D01*
X126833333Y-121642857D01*
X126833333Y-121785714D01*
X126785714Y-121880952D01*
X126738095Y-121928571D01*
X126642857Y-121976190D01*
X126261904Y-121976190D01*
X127404761Y-121880952D02*
X127309523Y-121833333D01*
X127261904Y-121785714D01*
X127214285Y-121690476D01*
X127214285Y-121642857D01*
X127261904Y-121547619D01*
X127309523Y-121500000D01*
X127404761Y-121452380D01*
X127595238Y-121452380D01*
X127690476Y-121500000D01*
X127738095Y-121547619D01*
X127785714Y-121642857D01*
X127785714Y-121690476D01*
X127738095Y-121785714D01*
X127690476Y-121833333D01*
X127595238Y-121880952D01*
X127404761Y-121880952D01*
X127309523Y-121928571D01*
X127261904Y-121976190D01*
X127214285Y-122071428D01*
X127214285Y-122261904D01*
X127261904Y-122357142D01*
X127309523Y-122404761D01*
X127404761Y-122452380D01*
X127595238Y-122452380D01*
X127690476Y-122404761D01*
X127738095Y-122357142D01*
X127785714Y-122261904D01*
X127785714Y-122071428D01*
X127738095Y-121976190D01*
X127690476Y-121928571D01*
X127595238Y-121880952D01*
%TO.C,C3*%
X77357142Y-126166666D02*
X77404761Y-126214285D01*
X77452380Y-126357142D01*
X77452380Y-126452380D01*
X77404761Y-126595238D01*
X77309523Y-126690476D01*
X77214285Y-126738095D01*
X77023809Y-126785714D01*
X76880952Y-126785714D01*
X76690476Y-126738095D01*
X76595238Y-126690476D01*
X76500000Y-126595238D01*
X76452380Y-126452380D01*
X76452380Y-126357142D01*
X76500000Y-126214285D01*
X76547619Y-126166666D01*
X76452380Y-125833333D02*
X76452380Y-125214285D01*
X76833333Y-125547619D01*
X76833333Y-125404761D01*
X76880952Y-125309523D01*
X76928571Y-125261904D01*
X77023809Y-125214285D01*
X77261904Y-125214285D01*
X77357142Y-125261904D01*
X77404761Y-125309523D01*
X77452380Y-125404761D01*
X77452380Y-125690476D01*
X77404761Y-125785714D01*
X77357142Y-125833333D01*
%TO.C,J1*%
X91350980Y-120946333D02*
X92065266Y-120946333D01*
X92208123Y-120993952D01*
X92303361Y-121089190D01*
X92350980Y-121232047D01*
X92350980Y-121327285D01*
X92350980Y-119946333D02*
X92350980Y-120517761D01*
X92350980Y-120232047D02*
X91350980Y-120232047D01*
X91493838Y-120327285D01*
X91589076Y-120422523D01*
X91636695Y-120517761D01*
%TO.C,U3*%
X68238095Y-111452380D02*
X67761904Y-111452380D01*
X67761904Y-110452380D01*
X69142857Y-111452380D02*
X68809523Y-110976190D01*
X68571428Y-111452380D02*
X68571428Y-110452380D01*
X68952380Y-110452380D01*
X69047619Y-110500000D01*
X69095238Y-110547619D01*
X69142857Y-110642857D01*
X69142857Y-110785714D01*
X69095238Y-110880952D01*
X69047619Y-110928571D01*
X68952380Y-110976190D01*
X68571428Y-110976190D01*
X69714285Y-110880952D02*
X69619047Y-110833333D01*
X69571428Y-110785714D01*
X69523809Y-110690476D01*
X69523809Y-110642857D01*
X69571428Y-110547619D01*
X69619047Y-110500000D01*
X69714285Y-110452380D01*
X69904761Y-110452380D01*
X70000000Y-110500000D01*
X70047619Y-110547619D01*
X70095238Y-110642857D01*
X70095238Y-110690476D01*
X70047619Y-110785714D01*
X70000000Y-110833333D01*
X69904761Y-110880952D01*
X69714285Y-110880952D01*
X69619047Y-110928571D01*
X69571428Y-110976190D01*
X69523809Y-111071428D01*
X69523809Y-111261904D01*
X69571428Y-111357142D01*
X69619047Y-111404761D01*
X69714285Y-111452380D01*
X69904761Y-111452380D01*
X70000000Y-111404761D01*
X70047619Y-111357142D01*
X70095238Y-111261904D01*
X70095238Y-111071428D01*
X70047619Y-110976190D01*
X70000000Y-110928571D01*
X69904761Y-110880952D01*
X70523809Y-111452380D02*
X70523809Y-110452380D01*
X71095238Y-111452380D02*
X70666666Y-110880952D01*
X71095238Y-110452380D02*
X70523809Y-111023809D01*
X71952380Y-110785714D02*
X71952380Y-111452380D01*
X71714285Y-110404761D02*
X71476190Y-111119047D01*
X72095238Y-111119047D01*
X72476190Y-111071428D02*
X73238095Y-111071428D01*
X74238095Y-110500000D02*
X74142857Y-110452380D01*
X74000000Y-110452380D01*
X73857142Y-110500000D01*
X73761904Y-110595238D01*
X73714285Y-110690476D01*
X73666666Y-110880952D01*
X73666666Y-111023809D01*
X73714285Y-111214285D01*
X73761904Y-111309523D01*
X73857142Y-111404761D01*
X74000000Y-111452380D01*
X74095238Y-111452380D01*
X74238095Y-111404761D01*
X74285714Y-111357142D01*
X74285714Y-111023809D01*
X74095238Y-111023809D01*
X68452380Y-115000000D02*
X68690476Y-115000000D01*
X68595238Y-115238095D02*
X68690476Y-115000000D01*
X68595238Y-114761904D01*
X68880952Y-115142857D02*
X68690476Y-115000000D01*
X68880952Y-114857142D01*
%TO.C,D1*%
X108952380Y-124738095D02*
X107952380Y-124738095D01*
X107952380Y-124500000D01*
X108000000Y-124357142D01*
X108095238Y-124261904D01*
X108190476Y-124214285D01*
X108380952Y-124166666D01*
X108523809Y-124166666D01*
X108714285Y-124214285D01*
X108809523Y-124261904D01*
X108904761Y-124357142D01*
X108952380Y-124500000D01*
X108952380Y-124738095D01*
X108952380Y-123214285D02*
X108952380Y-123785714D01*
X108952380Y-123500000D02*
X107952380Y-123500000D01*
X108095238Y-123595238D01*
X108190476Y-123690476D01*
X108238095Y-123785714D01*
%TO.C,U1*%
X122238095Y-98952380D02*
X122238095Y-99761904D01*
X122285714Y-99857142D01*
X122333333Y-99904761D01*
X122428571Y-99952380D01*
X122619047Y-99952380D01*
X122714285Y-99904761D01*
X122761904Y-99857142D01*
X122809523Y-99761904D01*
X122809523Y-98952380D01*
X123809523Y-99952380D02*
X123238095Y-99952380D01*
X123523809Y-99952380D02*
X123523809Y-98952380D01*
X123428571Y-99095238D01*
X123333333Y-99190476D01*
X123238095Y-99238095D01*
X121309523Y-112952380D02*
X120833333Y-112952380D01*
X120833333Y-111952380D01*
X121642857Y-112952380D02*
X121642857Y-111952380D01*
X121976190Y-112666666D01*
X122309523Y-111952380D01*
X122309523Y-112952380D01*
X122690476Y-111952380D02*
X123309523Y-111952380D01*
X122976190Y-112333333D01*
X123119047Y-112333333D01*
X123214285Y-112380952D01*
X123261904Y-112428571D01*
X123309523Y-112523809D01*
X123309523Y-112761904D01*
X123261904Y-112857142D01*
X123214285Y-112904761D01*
X123119047Y-112952380D01*
X122833333Y-112952380D01*
X122738095Y-112904761D01*
X122690476Y-112857142D01*
X124261904Y-112952380D02*
X123690476Y-112952380D01*
X123976190Y-112952380D02*
X123976190Y-111952380D01*
X123880952Y-112095238D01*
X123785714Y-112190476D01*
X123690476Y-112238095D01*
X125214285Y-112952380D02*
X124642857Y-112952380D01*
X124928571Y-112952380D02*
X124928571Y-111952380D01*
X124833333Y-112095238D01*
X124738095Y-112190476D01*
X124642857Y-112238095D01*
X119190000Y-100194580D02*
X119190000Y-100432676D01*
X118951904Y-100337438D02*
X119190000Y-100432676D01*
X119428095Y-100337438D01*
X119047142Y-100623152D02*
X119190000Y-100432676D01*
X119332857Y-100623152D01*
%TO.C,D2*%
X80700980Y-117581095D02*
X79700980Y-117581095D01*
X79700980Y-117343000D01*
X79748600Y-117200142D01*
X79843838Y-117104904D01*
X79939076Y-117057285D01*
X80129552Y-117009666D01*
X80272409Y-117009666D01*
X80462885Y-117057285D01*
X80558123Y-117104904D01*
X80653361Y-117200142D01*
X80700980Y-117343000D01*
X80700980Y-117581095D01*
X79796219Y-116628714D02*
X79748600Y-116581095D01*
X79700980Y-116485857D01*
X79700980Y-116247761D01*
X79748600Y-116152523D01*
X79796219Y-116104904D01*
X79891457Y-116057285D01*
X79986695Y-116057285D01*
X80129552Y-116104904D01*
X80700980Y-116676333D01*
X80700980Y-116057285D01*
X80330980Y-112024904D02*
X79330980Y-112024904D01*
X80330980Y-111453476D02*
X79759552Y-111882047D01*
X79330980Y-111453476D02*
X79902409Y-112024904D01*
%TO.C,R3*%
X98263333Y-116449880D02*
X97930000Y-115973690D01*
X97691904Y-116449880D02*
X97691904Y-115449880D01*
X98072857Y-115449880D01*
X98168095Y-115497500D01*
X98215714Y-115545119D01*
X98263333Y-115640357D01*
X98263333Y-115783214D01*
X98215714Y-115878452D01*
X98168095Y-115926071D01*
X98072857Y-115973690D01*
X97691904Y-115973690D01*
X98596666Y-115449880D02*
X99215714Y-115449880D01*
X98882380Y-115830833D01*
X99025238Y-115830833D01*
X99120476Y-115878452D01*
X99168095Y-115926071D01*
X99215714Y-116021309D01*
X99215714Y-116259404D01*
X99168095Y-116354642D01*
X99120476Y-116402261D01*
X99025238Y-116449880D01*
X98739523Y-116449880D01*
X98644285Y-116402261D01*
X98596666Y-116354642D01*
%TO.C,R12*%
X156372380Y-129452857D02*
X155896190Y-129786190D01*
X156372380Y-130024285D02*
X155372380Y-130024285D01*
X155372380Y-129643333D01*
X155420000Y-129548095D01*
X155467619Y-129500476D01*
X155562857Y-129452857D01*
X155705714Y-129452857D01*
X155800952Y-129500476D01*
X155848571Y-129548095D01*
X155896190Y-129643333D01*
X155896190Y-130024285D01*
X156372380Y-128500476D02*
X156372380Y-129071904D01*
X156372380Y-128786190D02*
X155372380Y-128786190D01*
X155515238Y-128881428D01*
X155610476Y-128976666D01*
X155658095Y-129071904D01*
X155467619Y-128119523D02*
X155420000Y-128071904D01*
X155372380Y-127976666D01*
X155372380Y-127738571D01*
X155420000Y-127643333D01*
X155467619Y-127595714D01*
X155562857Y-127548095D01*
X155658095Y-127548095D01*
X155800952Y-127595714D01*
X156372380Y-128167142D01*
X156372380Y-127548095D01*
%TO.C,R4*%
X98453333Y-120369880D02*
X98120000Y-119893690D01*
X97881904Y-120369880D02*
X97881904Y-119369880D01*
X98262857Y-119369880D01*
X98358095Y-119417500D01*
X98405714Y-119465119D01*
X98453333Y-119560357D01*
X98453333Y-119703214D01*
X98405714Y-119798452D01*
X98358095Y-119846071D01*
X98262857Y-119893690D01*
X97881904Y-119893690D01*
X99310476Y-119703214D02*
X99310476Y-120369880D01*
X99072380Y-119322261D02*
X98834285Y-120036547D01*
X99453333Y-120036547D01*
D13*
%TO.C,J2[GRN LED]*%
X163710000Y-108010000D02*
X163710000Y-109010000D01*
X163460000Y-109010000D02*
X163460000Y-108010000D01*
X164260000Y-114030000D02*
X164260000Y-113430000D01*
X165750000Y-109540000D02*
X163710000Y-109540000D01*
X162660000Y-113430000D02*
X162660000Y-114030000D01*
X167380000Y-114030000D02*
X167380000Y-108010000D01*
X165750000Y-108010000D02*
X165750000Y-109010000D01*
X166800000Y-114030000D02*
X166800000Y-113430000D01*
X167380000Y-108010000D02*
X162080000Y-108010000D01*
X167670000Y-113000000D02*
X167670000Y-109000000D01*
X165200000Y-113430000D02*
X165200000Y-114030000D01*
X166000000Y-108010000D02*
X166000000Y-109010000D01*
X162080000Y-108010000D02*
X162080000Y-114030000D01*
X162080000Y-114030000D02*
X167380000Y-114030000D01*
X166000000Y-109010000D02*
X165750000Y-109540000D01*
X166800000Y-113430000D02*
X165200000Y-113430000D01*
X164260000Y-113430000D02*
X162660000Y-113430000D01*
X166000000Y-109010000D02*
X163460000Y-109010000D01*
X163710000Y-109540000D02*
X163460000Y-109010000D01*
%TO.C,PS1*%
X88220000Y-128432500D02*
X110020000Y-128432500D01*
X110020000Y-128432500D02*
X110020000Y-137632500D01*
X110020000Y-137632500D02*
X88220000Y-137632500D01*
X88220000Y-137632500D02*
X88220000Y-128432500D01*
%TO.C,R13*%
X173080000Y-114730000D02*
X176920000Y-114730000D01*
X177870000Y-113810000D02*
X176920000Y-113810000D01*
X176920000Y-112890000D02*
X173080000Y-112890000D01*
X176920000Y-114730000D02*
X176920000Y-112890000D01*
X172130000Y-113810000D02*
X173080000Y-113810000D01*
X173080000Y-112890000D02*
X173080000Y-114730000D01*
%TO.C,R15*%
X64358600Y-122423000D02*
X64358600Y-126263000D01*
X66198600Y-126263000D02*
X66198600Y-122423000D01*
X65278600Y-121473000D02*
X65278600Y-122423000D01*
X65278600Y-127213000D02*
X65278600Y-126263000D01*
X66198600Y-122423000D02*
X64358600Y-122423000D01*
X64358600Y-126263000D02*
X66198600Y-126263000D01*
%TO.C,R11*%
X137080000Y-108920000D02*
X138920000Y-108920000D01*
X138920000Y-105080000D02*
X137080000Y-105080000D01*
X138000000Y-104130000D02*
X138000000Y-105080000D01*
X138000000Y-109870000D02*
X138000000Y-108920000D01*
X138920000Y-108920000D02*
X138920000Y-105080000D01*
X137080000Y-105080000D02*
X137080000Y-108920000D01*
%TO.C,D3*%
X59238600Y-129553000D02*
X59768600Y-129303000D01*
X59238600Y-131593000D02*
X59238600Y-129553000D01*
X54748600Y-127923000D02*
X54748600Y-133223000D01*
X55348600Y-131043000D02*
X54748600Y-131043000D01*
X60768600Y-131843000D02*
X59768600Y-131843000D01*
X60768600Y-133223000D02*
X60768600Y-127923000D01*
X55348600Y-128503000D02*
X54748600Y-128503000D01*
X60768600Y-127923000D02*
X54748600Y-127923000D01*
X54748600Y-132643000D02*
X55348600Y-132643000D01*
X60768600Y-129553000D02*
X59768600Y-129553000D01*
X59768600Y-131843000D02*
X59238600Y-131593000D01*
X60768600Y-131593000D02*
X59768600Y-131593000D01*
X59768600Y-131843000D02*
X59768600Y-129303000D01*
X54748600Y-130103000D02*
X55348600Y-130103000D01*
X59768600Y-129303000D02*
X60768600Y-129303000D01*
X55348600Y-130103000D02*
X55348600Y-128503000D01*
X55778600Y-133513000D02*
X59778600Y-133513000D01*
X55348600Y-132643000D02*
X55348600Y-131043000D01*
X54748600Y-133223000D02*
X60768600Y-133223000D01*
%TO.C,R10*%
X131080000Y-105080000D02*
X131080000Y-108920000D01*
X132000000Y-104130000D02*
X132000000Y-105080000D01*
X132920000Y-108920000D02*
X132920000Y-105080000D01*
X132000000Y-109870000D02*
X132000000Y-108920000D01*
X131080000Y-108920000D02*
X132920000Y-108920000D01*
X132920000Y-105080000D02*
X131080000Y-105080000D01*
%TO.C,D4*%
X156460000Y-120750000D02*
X156460000Y-118710000D01*
X152570000Y-117660000D02*
X151970000Y-117660000D01*
X156460000Y-118710000D02*
X156990000Y-118460000D01*
X157990000Y-117080000D02*
X151970000Y-117080000D01*
X157990000Y-118710000D02*
X156990000Y-118710000D01*
X156990000Y-118460000D02*
X157990000Y-118460000D01*
X157990000Y-121000000D02*
X156990000Y-121000000D01*
X157990000Y-122380000D02*
X157990000Y-117080000D01*
X152570000Y-119260000D02*
X152570000Y-117660000D01*
X151970000Y-119260000D02*
X152570000Y-119260000D01*
X157990000Y-120750000D02*
X156990000Y-120750000D01*
X151970000Y-122380000D02*
X157990000Y-122380000D01*
X156990000Y-121000000D02*
X156990000Y-118460000D01*
X151970000Y-121800000D02*
X152570000Y-121800000D01*
X156990000Y-121000000D02*
X156460000Y-120750000D01*
X152570000Y-121800000D02*
X152570000Y-120200000D01*
X152570000Y-120200000D02*
X151970000Y-120200000D01*
X151970000Y-117080000D02*
X151970000Y-122380000D01*
X153000000Y-122670000D02*
X157000000Y-122670000D01*
%TO.C,R_Sense1*%
X59908600Y-116843000D02*
X60858600Y-116843000D01*
X65648600Y-116843000D02*
X64698600Y-116843000D01*
X64698600Y-115923000D02*
X60858600Y-115923000D01*
X60858600Y-115923000D02*
X60858600Y-117763000D01*
X60858600Y-117763000D02*
X64698600Y-117763000D01*
X64698600Y-117763000D02*
X64698600Y-115923000D01*
%TO.C,R5*%
X95750000Y-125917500D02*
X96700000Y-125917500D01*
X96700000Y-124997500D02*
X96700000Y-126837500D01*
X100540000Y-126837500D02*
X100540000Y-124997500D01*
X96700000Y-126837500D02*
X100540000Y-126837500D01*
X100540000Y-124997500D02*
X96700000Y-124997500D01*
X101490000Y-125917500D02*
X100540000Y-125917500D01*
%TO.C,R9*%
X117920000Y-124920000D02*
X117920000Y-123080000D01*
X113130000Y-124000000D02*
X114080000Y-124000000D01*
X114080000Y-123080000D02*
X114080000Y-124920000D01*
X118870000Y-124000000D02*
X117920000Y-124000000D01*
X117920000Y-123080000D02*
X114080000Y-123080000D01*
X114080000Y-124920000D02*
X117920000Y-124920000D01*
%TO.C,C2*%
X120880000Y-120612500D02*
X128120000Y-120612500D01*
X119380000Y-115872500D02*
X120130000Y-116622500D01*
X116130000Y-116042500D02*
X117630000Y-116042500D01*
X129260000Y-118242500D02*
X128120000Y-118242500D01*
X117880000Y-115872500D02*
X117880000Y-120612500D01*
X116740000Y-118242500D02*
X117880000Y-118242500D01*
X119380000Y-120612500D02*
X120130000Y-119862500D01*
X120130000Y-119862500D02*
X120880000Y-120612500D01*
X117880000Y-120612500D02*
X119380000Y-120612500D01*
X116880000Y-115292500D02*
X116880000Y-116792500D01*
X128120000Y-115872500D02*
X128120000Y-120612500D01*
X117880000Y-115872500D02*
X119380000Y-115872500D01*
X120880000Y-115872500D02*
X128120000Y-115872500D01*
X120130000Y-116622500D02*
X120880000Y-115872500D01*
%TO.C,Q3*%
X164594100Y-117001200D02*
X159945900Y-117001200D01*
X159945900Y-127466000D02*
X164594100Y-127466000D01*
X164594100Y-127466000D02*
X164594100Y-117001200D01*
X163324100Y-117128200D02*
X163324100Y-127339000D01*
X159945900Y-117001200D02*
X159945900Y-127466000D01*
%TO.C,R1*%
X100540000Y-108997500D02*
X96700000Y-108997500D01*
X100540000Y-110837500D02*
X100540000Y-108997500D01*
X101490000Y-109917500D02*
X100540000Y-109917500D01*
X96700000Y-110837500D02*
X100540000Y-110837500D01*
X95750000Y-109917500D02*
X96700000Y-109917500D01*
X96700000Y-108997500D02*
X96700000Y-110837500D01*
%TO.C,R7*%
X130370000Y-128500000D02*
X129420000Y-128500000D01*
X129420000Y-129420000D02*
X129420000Y-127580000D01*
X125580000Y-127580000D02*
X125580000Y-129420000D01*
X124630000Y-128500000D02*
X125580000Y-128500000D01*
X129420000Y-127580000D02*
X125580000Y-127580000D01*
X125580000Y-129420000D02*
X129420000Y-129420000D01*
%TO.C,R2*%
X100230000Y-112997500D02*
X96390000Y-112997500D01*
X95440000Y-113917500D02*
X96390000Y-113917500D01*
X96390000Y-114837500D02*
X100230000Y-114837500D01*
X101180000Y-113917500D02*
X100230000Y-113917500D01*
X100230000Y-114837500D02*
X100230000Y-112997500D01*
X96390000Y-112997500D02*
X96390000Y-114837500D01*
%TO.C,R6*%
X118870000Y-128500000D02*
X117920000Y-128500000D01*
X114080000Y-127580000D02*
X114080000Y-129420000D01*
X114080000Y-129420000D02*
X117920000Y-129420000D01*
X117920000Y-127580000D02*
X114080000Y-127580000D01*
X113130000Y-128500000D02*
X114080000Y-128500000D01*
X117920000Y-129420000D02*
X117920000Y-127580000D01*
%TO.C,C1*%
X106330000Y-106230000D02*
X105580000Y-106980000D01*
X110320000Y-105480000D02*
X109570000Y-106230000D01*
X109570000Y-106230000D02*
X110320000Y-106980000D01*
X107950000Y-102840000D02*
X107950000Y-103980000D01*
X110320000Y-103980000D02*
X105580000Y-103980000D01*
X105580000Y-106980000D02*
X105580000Y-114220000D01*
X105580000Y-103980000D02*
X105580000Y-105480000D01*
X110320000Y-106980000D02*
X110320000Y-114220000D01*
X110320000Y-103980000D02*
X110320000Y-105480000D01*
X105580000Y-105480000D02*
X106330000Y-106230000D01*
X110900000Y-102980000D02*
X109400000Y-102980000D01*
X107950000Y-115360000D02*
X107950000Y-114220000D01*
X110150000Y-102230000D02*
X110150000Y-103730000D01*
X110320000Y-114220000D02*
X105580000Y-114220000D01*
%TO.C,Q1*%
X178594100Y-127466000D02*
X178594100Y-117001200D01*
X173945900Y-117001200D02*
X173945900Y-127466000D01*
X173945900Y-127466000D02*
X178594100Y-127466000D01*
X178594100Y-117001200D02*
X173945900Y-117001200D01*
X177324100Y-117128200D02*
X177324100Y-127339000D01*
%TO.C,U2*%
X142378200Y-122457960D02*
X142378200Y-122082040D01*
X142378200Y-119917960D02*
X142378200Y-119542040D01*
X135621800Y-122082040D02*
X135621800Y-122457960D01*
X135621800Y-119542040D02*
X135621800Y-119917960D01*
X142378200Y-117228100D02*
X135621800Y-117228100D01*
X135621800Y-124771900D02*
X142378200Y-124771900D01*
%TO.C,R14*%
X71858600Y-126233000D02*
X71858600Y-130073000D01*
X71858600Y-130073000D02*
X73698600Y-130073000D01*
X73698600Y-126233000D02*
X71858600Y-126233000D01*
X73698600Y-130073000D02*
X73698600Y-126233000D01*
X72778600Y-125283000D02*
X72778600Y-126233000D01*
X72778600Y-131023000D02*
X72778600Y-130073000D01*
%TO.C,Q2*%
X166945900Y-117001200D02*
X166945900Y-127466000D01*
X171594100Y-117001200D02*
X166945900Y-117001200D01*
X166945900Y-127466000D02*
X171594100Y-127466000D01*
X170324100Y-117128200D02*
X170324100Y-127339000D01*
X171594100Y-127466000D02*
X171594100Y-117001200D01*
%TO.C,R8*%
X124130000Y-124000000D02*
X125080000Y-124000000D01*
X125080000Y-124920000D02*
X128920000Y-124920000D01*
X129870000Y-124000000D02*
X128920000Y-124000000D01*
X128920000Y-123080000D02*
X125080000Y-123080000D01*
X128920000Y-124920000D02*
X128920000Y-123080000D01*
X125080000Y-123080000D02*
X125080000Y-124920000D01*
%TO.C,C3*%
X77333600Y-127252000D02*
X83223600Y-127252000D01*
X77878600Y-126772000D02*
X82678600Y-126772000D01*
X81318600Y-128452000D02*
X84018600Y-128452000D01*
X81318600Y-127812000D02*
X83670600Y-127812000D01*
X76457600Y-128652000D02*
X79238600Y-128652000D01*
X81318600Y-128772000D02*
X84141600Y-128772000D01*
X79330600Y-126092000D02*
X81226600Y-126092000D01*
X76293600Y-129212000D02*
X79238600Y-129212000D01*
X78388600Y-126452000D02*
X82168600Y-126452000D01*
X79049600Y-126172000D02*
X81507600Y-126172000D01*
X76236600Y-129533000D02*
X84320600Y-129533000D01*
X76207600Y-129813000D02*
X84349600Y-129813000D01*
X78726600Y-126292000D02*
X81830600Y-126292000D01*
X81318600Y-127572000D02*
X83498600Y-127572000D01*
X77188600Y-127412000D02*
X79238600Y-127412000D01*
X76321600Y-129092000D02*
X79238600Y-129092000D01*
X81318600Y-128012000D02*
X83795600Y-128012000D01*
X78547600Y-126372000D02*
X82009600Y-126372000D01*
X81318600Y-127652000D02*
X83558600Y-127652000D01*
X81318600Y-128652000D02*
X84099600Y-128652000D01*
X81318600Y-129052000D02*
X84225600Y-129052000D01*
X81318600Y-127852000D02*
X83696600Y-127852000D01*
X76538600Y-128452000D02*
X79238600Y-128452000D01*
X81318600Y-128052000D02*
X83818600Y-128052000D01*
X81318600Y-127492000D02*
X83434600Y-127492000D01*
X77295600Y-127292000D02*
X83261600Y-127292000D01*
X81318600Y-129292000D02*
X84280600Y-129292000D01*
X78465600Y-126412000D02*
X82091600Y-126412000D01*
X76364600Y-128932000D02*
X79238600Y-128932000D01*
X76217600Y-129693000D02*
X84339600Y-129693000D01*
X76785600Y-127972000D02*
X79238600Y-127972000D01*
X76488600Y-128572000D02*
X79238600Y-128572000D01*
X76342600Y-129012000D02*
X79238600Y-129012000D01*
X76213600Y-129733000D02*
X84343600Y-129733000D01*
X81318600Y-127732000D02*
X83616600Y-127732000D01*
X81318600Y-128332000D02*
X83964600Y-128332000D01*
X81318600Y-128132000D02*
X83862600Y-128132000D01*
X81318600Y-129212000D02*
X84263600Y-129212000D01*
X81318600Y-129172000D02*
X84254600Y-129172000D01*
X81318600Y-127372000D02*
X83333600Y-127372000D01*
X76401600Y-128812000D02*
X79238600Y-128812000D01*
X76415600Y-128772000D02*
X79238600Y-128772000D01*
X77537600Y-127052000D02*
X83019600Y-127052000D01*
X76694600Y-128132000D02*
X79238600Y-128132000D01*
X76940600Y-127732000D02*
X79238600Y-127732000D01*
X76202600Y-129893000D02*
X84354600Y-129893000D01*
X77674600Y-126932000D02*
X82882600Y-126932000D01*
X76199600Y-129973000D02*
X84357600Y-129973000D01*
X81318600Y-128812000D02*
X84155600Y-128812000D01*
X81318600Y-128492000D02*
X84035600Y-128492000D01*
X76886600Y-127812000D02*
X79238600Y-127812000D01*
X81318600Y-128412000D02*
X84000600Y-128412000D01*
X76204600Y-129853000D02*
X84352600Y-129853000D01*
X78825600Y-126252000D02*
X81731600Y-126252000D01*
X76631600Y-128252000D02*
X79238600Y-128252000D01*
X81318600Y-127612000D02*
X83528600Y-127612000D01*
X76331600Y-129052000D02*
X79238600Y-129052000D01*
X76221600Y-129653000D02*
X84335600Y-129653000D01*
X77452600Y-127132000D02*
X83104600Y-127132000D01*
X76612600Y-128292000D02*
X79238600Y-128292000D01*
X76473600Y-128612000D02*
X79238600Y-128612000D01*
X76261600Y-129372000D02*
X79238600Y-129372000D01*
X77058600Y-127572000D02*
X79238600Y-127572000D01*
X77371600Y-127212000D02*
X83185600Y-127212000D01*
X77563600Y-134102698D02*
X78363600Y-134102698D01*
X76254600Y-129413000D02*
X84302600Y-129413000D01*
X76443600Y-128692000D02*
X79238600Y-128692000D01*
X81318600Y-128212000D02*
X83905600Y-128212000D01*
X81318600Y-127972000D02*
X83771600Y-127972000D01*
X76556600Y-128412000D02*
X79238600Y-128412000D01*
X76651600Y-128212000D02*
X79238600Y-128212000D01*
X81318600Y-129132000D02*
X84245600Y-129132000D01*
X76198600Y-130093000D02*
X84358600Y-130093000D01*
X76284600Y-129252000D02*
X79238600Y-129252000D01*
X76574600Y-128372000D02*
X79238600Y-128372000D01*
X76276600Y-129292000D02*
X79238600Y-129292000D01*
X77722600Y-126892000D02*
X82834600Y-126892000D01*
X81318600Y-128292000D02*
X83944600Y-128292000D01*
X76302600Y-129172000D02*
X79238600Y-129172000D01*
X76738600Y-128052000D02*
X79238600Y-128052000D01*
X76353600Y-128972000D02*
X79238600Y-128972000D01*
X77991600Y-126692000D02*
X82565600Y-126692000D01*
X76998600Y-127652000D02*
X79238600Y-127652000D01*
X76198600Y-130013000D02*
X84358600Y-130013000D01*
X81318600Y-128532000D02*
X84052600Y-128532000D01*
X81318600Y-128612000D02*
X84083600Y-128612000D01*
X78314600Y-126492000D02*
X82242600Y-126492000D01*
X78633600Y-126332000D02*
X81923600Y-126332000D01*
X81318600Y-128172000D02*
X83884600Y-128172000D01*
X77773600Y-126852000D02*
X82783600Y-126852000D01*
X81318600Y-128852000D02*
X84167600Y-128852000D01*
X79180600Y-126132000D02*
X81376600Y-126132000D01*
X81318600Y-128572000D02*
X84068600Y-128572000D01*
X81318600Y-127412000D02*
X83368600Y-127412000D01*
X81318600Y-128692000D02*
X84113600Y-128692000D01*
X76198600Y-130053000D02*
X84358600Y-130053000D01*
X81318600Y-129252000D02*
X84272600Y-129252000D01*
X77089600Y-127532000D02*
X79238600Y-127532000D01*
X81318600Y-127332000D02*
X83297600Y-127332000D01*
X76504600Y-128532000D02*
X79238600Y-128532000D01*
X76521600Y-128492000D02*
X79238600Y-128492000D01*
X79510600Y-126052000D02*
X81046600Y-126052000D01*
X76389600Y-128852000D02*
X79238600Y-128852000D01*
X76716600Y-128092000D02*
X79238600Y-128092000D01*
X81318600Y-129332000D02*
X84288600Y-129332000D01*
X77963600Y-134502698D02*
X77963600Y-133702698D01*
X81318600Y-127452000D02*
X83402600Y-127452000D01*
X81318600Y-127892000D02*
X83722600Y-127892000D01*
X78112600Y-126612000D02*
X82444600Y-126612000D01*
X76226600Y-129613000D02*
X84330600Y-129613000D01*
X78176600Y-126572000D02*
X82380600Y-126572000D01*
X81318600Y-128972000D02*
X84203600Y-128972000D01*
X77627600Y-126972000D02*
X82929600Y-126972000D01*
X81318600Y-127692000D02*
X83587600Y-127692000D01*
X81318600Y-128732000D02*
X84128600Y-128732000D01*
X76230600Y-129573000D02*
X84326600Y-129573000D01*
X76913600Y-127772000D02*
X79238600Y-127772000D01*
X81318600Y-127772000D02*
X83643600Y-127772000D01*
X76834600Y-127892000D02*
X79238600Y-127892000D01*
X76268600Y-129332000D02*
X79238600Y-129332000D01*
X77154600Y-127452000D02*
X79238600Y-127452000D01*
X81318600Y-128892000D02*
X84180600Y-128892000D01*
X76210600Y-129773000D02*
X84346600Y-129773000D01*
X76376600Y-128892000D02*
X79238600Y-128892000D01*
X81318600Y-128092000D02*
X83840600Y-128092000D01*
X76201600Y-129933000D02*
X84355600Y-129933000D01*
X77223600Y-127372000D02*
X79238600Y-127372000D01*
X81318600Y-128252000D02*
X83925600Y-128252000D01*
X76241600Y-129493000D02*
X84315600Y-129493000D01*
X78244600Y-126532000D02*
X82312600Y-126532000D01*
X76672600Y-128172000D02*
X79238600Y-128172000D01*
X77581600Y-127012000D02*
X82975600Y-127012000D01*
X76761600Y-128012000D02*
X79238600Y-128012000D01*
X77028600Y-127612000D02*
X79238600Y-127612000D01*
X81318600Y-127532000D02*
X83467600Y-127532000D01*
X76592600Y-128332000D02*
X79238600Y-128332000D01*
X81318600Y-128372000D02*
X83982600Y-128372000D01*
X76428600Y-128732000D02*
X79238600Y-128732000D01*
X76969600Y-127692000D02*
X79238600Y-127692000D01*
X76809600Y-127932000D02*
X79238600Y-127932000D01*
X77494600Y-127092000D02*
X83062600Y-127092000D01*
X77122600Y-127492000D02*
X79238600Y-127492000D01*
X78932600Y-126212000D02*
X81624600Y-126212000D01*
X81318600Y-128932000D02*
X84192600Y-128932000D01*
X77411600Y-127172000D02*
X83145600Y-127172000D01*
X76248600Y-129453000D02*
X84308600Y-129453000D01*
X81318600Y-129372000D02*
X84295600Y-129372000D01*
X77259600Y-127332000D02*
X79238600Y-127332000D01*
X76311600Y-129132000D02*
X79238600Y-129132000D01*
X76860600Y-127852000D02*
X79238600Y-127852000D01*
X77933600Y-126732000D02*
X82623600Y-126732000D01*
X81318600Y-129092000D02*
X84235600Y-129092000D01*
X81318600Y-127932000D02*
X83747600Y-127932000D01*
X79745600Y-126012000D02*
X80811600Y-126012000D01*
X81318600Y-129012000D02*
X84214600Y-129012000D01*
X78050600Y-126652000D02*
X82506600Y-126652000D01*
X77824600Y-126812000D02*
X82732600Y-126812000D01*
X84398600Y-130093000D02*
G75*
G03*
X84398600Y-130093000I-4120000J0D01*
G01*
%TO.C,J1*%
X90808600Y-121083000D02*
X90208600Y-121083000D01*
X90808600Y-118543000D02*
X90208600Y-118543000D01*
X84788600Y-119343000D02*
X85788600Y-119343000D01*
X90208600Y-121083000D02*
X90208600Y-122683000D01*
X85788600Y-121883000D02*
X84788600Y-121883000D01*
X90808600Y-123263000D02*
X90808600Y-117963000D01*
X84788600Y-123263000D02*
X90808600Y-123263000D01*
X84788600Y-119593000D02*
X85788600Y-119593000D01*
X89778600Y-117673000D02*
X85778600Y-117673000D01*
X86318600Y-121633000D02*
X85788600Y-121883000D01*
X90808600Y-117963000D02*
X84788600Y-117963000D01*
X84788600Y-117963000D02*
X84788600Y-123263000D01*
X90208600Y-118543000D02*
X90208600Y-120143000D01*
X85788600Y-119343000D02*
X86318600Y-119593000D01*
X84788600Y-121633000D02*
X85788600Y-121633000D01*
X86318600Y-119593000D02*
X86318600Y-121633000D01*
X90208600Y-120143000D02*
X90808600Y-120143000D01*
X85788600Y-119343000D02*
X85788600Y-121883000D01*
X90208600Y-122683000D02*
X90808600Y-122683000D01*
%TO.C,U3*%
X69199100Y-116049494D02*
X69199100Y-120176506D01*
%TO.C,D1*%
X105500000Y-121450000D02*
X105500000Y-125750000D01*
X107500000Y-125750000D02*
X107500000Y-121450000D01*
X107500000Y-121450000D02*
X105500000Y-121450000D01*
%TO.C,U1*%
X126429000Y-111207000D02*
X126429000Y-110754597D01*
X119571000Y-111207000D02*
X126429000Y-111207000D01*
X119571000Y-105674597D02*
X119571000Y-106325403D01*
X126429000Y-101245403D02*
X126429000Y-100793000D01*
X119571000Y-100793000D02*
X119571000Y-101171460D01*
X119571000Y-110754597D02*
X119571000Y-111207000D01*
X119571000Y-103208540D02*
X119571000Y-103785403D01*
X126429000Y-103785403D02*
X126429000Y-103134597D01*
X119571000Y-108214597D02*
X119571000Y-108865403D01*
X126429000Y-106325403D02*
X126429000Y-105674597D01*
X126429000Y-108865403D02*
X126429000Y-108214597D01*
X126429000Y-100793000D02*
X119571000Y-100793000D01*
%TO.C,D2*%
X79248600Y-119563000D02*
X79248600Y-114123000D01*
X77778600Y-120583000D02*
X77778600Y-119563000D01*
X79248600Y-115023000D02*
X76308600Y-115023000D01*
X79248600Y-114123000D02*
X76308600Y-114123000D01*
X77778600Y-113103000D02*
X77778600Y-114123000D01*
X76308600Y-114123000D02*
X76308600Y-119563000D01*
X79248600Y-115143000D02*
X76308600Y-115143000D01*
X76308600Y-119563000D02*
X79248600Y-119563000D01*
X79248600Y-114903000D02*
X76308600Y-114903000D01*
%TO.C,R3*%
X96510000Y-116997500D02*
X96510000Y-118837500D01*
X100350000Y-118837500D02*
X100350000Y-116997500D01*
X96510000Y-118837500D02*
X100350000Y-118837500D01*
X95560000Y-117917500D02*
X96510000Y-117917500D01*
X100350000Y-116997500D02*
X96510000Y-116997500D01*
X101300000Y-117917500D02*
X100350000Y-117917500D01*
%TO.C,R12*%
X154000000Y-131680000D02*
X154000000Y-130730000D01*
X154920000Y-126890000D02*
X153080000Y-126890000D01*
X153080000Y-126890000D02*
X153080000Y-130730000D01*
X154920000Y-130730000D02*
X154920000Y-126890000D01*
X153080000Y-130730000D02*
X154920000Y-130730000D01*
X154000000Y-125940000D02*
X154000000Y-126890000D01*
%TO.C,R4*%
X96700000Y-120997500D02*
X96700000Y-122837500D01*
X96700000Y-122837500D02*
X100540000Y-122837500D01*
X100540000Y-122837500D02*
X100540000Y-120997500D01*
X101490000Y-121917500D02*
X100540000Y-121917500D01*
X95750000Y-121917500D02*
X96700000Y-121917500D01*
X100540000Y-120997500D02*
X96700000Y-120997500D01*
%TD*%
M02*
