%TF.GenerationSoftware,KiCad,Pcbnew,(6.0.2)*%
%TF.CreationDate,2022-03-20T13:20:32+09:00*%
%TF.ProjectId,TSAL&VOLTAGE_INDICATOR (1),5453414c-2656-44f4-9c54-4147455f494e,rev?*%
%TF.SameCoordinates,Original*%
%TF.FileFunction,Soldermask,Top*%
%TF.FilePolarity,Negative*%
%FSLAX46Y46*%
G04 Gerber Fmt 4.6, Leading zero omitted, Abs format (unit mm)*
G04 Created by KiCad (PCBNEW (6.0.2)) date 2022-03-20 13:20:32*
%MOMM*%
%LPD*%
G01*
G04 APERTURE LIST*
G04 Aperture macros list*
%AMRoundRect*
0 Rectangle with rounded corners*
0 $1 Rounding radius*
0 $2 $3 $4 $5 $6 $7 $8 $9 X,Y pos of 4 corners*
0 Add a 4 corners polygon primitive as box body*
4,1,4,$2,$3,$4,$5,$6,$7,$8,$9,$2,$3,0*
0 Add four circle primitives for the rounded corners*
1,1,$1+$1,$2,$3*
1,1,$1+$1,$4,$5*
1,1,$1+$1,$6,$7*
1,1,$1+$1,$8,$9*
0 Add four rect primitives between the rounded corners*
20,1,$1+$1,$2,$3,$4,$5,0*
20,1,$1+$1,$4,$5,$6,$7,0*
20,1,$1+$1,$6,$7,$8,$9,0*
20,1,$1+$1,$8,$9,$2,$3,0*%
G04 Aperture macros list end*
%ADD10RoundRect,0.250000X0.620000X0.845000X-0.620000X0.845000X-0.620000X-0.845000X0.620000X-0.845000X0*%
%ADD11O,1.740000X2.190000*%
%ADD12C,1.350000*%
%ADD13C,1.400000*%
%ADD14O,1.400000X1.400000*%
%ADD15RoundRect,0.250000X0.845000X-0.620000X0.845000X0.620000X-0.845000X0.620000X-0.845000X-0.620000X0*%
%ADD16O,2.190000X1.740000*%
%ADD17R,2.000000X2.000000*%
%ADD18O,2.000000X2.000000*%
%ADD19R,1.625600X1.625600*%
%ADD20C,1.625600*%
%ADD21R,1.295400X1.498600*%
%ADD22R,1.600000X1.600000*%
%ADD23C,1.600000*%
%ADD24RoundRect,0.250000X-0.845000X0.620000X-0.845000X-0.620000X0.845000X-0.620000X0.845000X0.620000X0*%
%ADD25C,1.320800*%
%ADD26R,1.700000X1.300000*%
%ADD27R,1.371600X1.371600*%
%ADD28C,1.371600*%
%ADD29R,2.200000X2.200000*%
%ADD30O,2.200000X2.200000*%
G04 APERTURE END LIST*
D10*
%TO.C,J2[GRN LED]*%
X166000000Y-111000000D03*
D11*
X163460000Y-111000000D03*
%TD*%
D12*
%TO.C,PS1*%
X90220000Y-133512500D03*
X92760000Y-133512500D03*
X95300000Y-133512500D03*
X100380000Y-133512500D03*
X102920000Y-133512500D03*
X105460000Y-133512500D03*
X108000000Y-133512500D03*
%TD*%
D13*
%TO.C,R13*%
X171190000Y-113810000D03*
D14*
X178810000Y-113810000D03*
%TD*%
D13*
%TO.C,R15*%
X65278600Y-128153000D03*
D14*
X65278600Y-120533000D03*
%TD*%
D13*
%TO.C,R11*%
X138000000Y-110810000D03*
D14*
X138000000Y-103190000D03*
%TD*%
D15*
%TO.C,D3*%
X57778600Y-131843000D03*
D16*
X57778600Y-129303000D03*
%TD*%
D13*
%TO.C,R10*%
X132000000Y-103190000D03*
D14*
X132000000Y-110810000D03*
%TD*%
D15*
%TO.C,D4*%
X155000000Y-121000000D03*
D16*
X155000000Y-118460000D03*
%TD*%
D13*
%TO.C,R_Sense1*%
X66588600Y-116843000D03*
D14*
X58968600Y-116843000D03*
%TD*%
D13*
%TO.C,R5*%
X94810000Y-125917500D03*
D14*
X102430000Y-125917500D03*
%TD*%
D13*
%TO.C,R9*%
X119810000Y-124000000D03*
D14*
X112190000Y-124000000D03*
%TD*%
D17*
%TO.C,C2*%
X115500000Y-118242500D03*
D18*
X130500000Y-118242500D03*
%TD*%
D19*
%TO.C,Q3*%
X161647700Y-119693600D03*
D20*
X161647700Y-122233600D03*
X161647700Y-124773600D03*
%TD*%
D13*
%TO.C,R1*%
X94810000Y-109917500D03*
D14*
X102430000Y-109917500D03*
%TD*%
D13*
%TO.C,R7*%
X123690000Y-128500000D03*
D14*
X131310000Y-128500000D03*
%TD*%
D13*
%TO.C,R2*%
X102120000Y-113917500D03*
D14*
X94500000Y-113917500D03*
%TD*%
D13*
%TO.C,R6*%
X112190000Y-128500000D03*
D14*
X119810000Y-128500000D03*
%TD*%
D17*
%TO.C,C1*%
X107950000Y-101600000D03*
D18*
X107950000Y-116600000D03*
%TD*%
D19*
%TO.C,Q1*%
X175647700Y-119693600D03*
D20*
X175647700Y-122233600D03*
X175647700Y-124773600D03*
%TD*%
D21*
%TO.C,U2*%
X135190000Y-118460000D03*
X135190000Y-121000000D03*
X135190000Y-123540000D03*
X142810000Y-123540000D03*
X142810000Y-121000000D03*
X142810000Y-118460000D03*
%TD*%
D13*
%TO.C,R14*%
X72778600Y-124343000D03*
D14*
X72778600Y-131963000D03*
%TD*%
D19*
%TO.C,Q2*%
X168647700Y-119693600D03*
D20*
X168647700Y-122233600D03*
X168647700Y-124773600D03*
%TD*%
D13*
%TO.C,R8*%
X130810000Y-124000000D03*
D14*
X123190000Y-124000000D03*
%TD*%
D22*
%TO.C,C3*%
X80278600Y-131843000D03*
D23*
X80278600Y-128343000D03*
%TD*%
D24*
%TO.C,J1*%
X87778600Y-119343000D03*
D16*
X87778600Y-121883000D03*
%TD*%
D25*
%TO.C,U3*%
X70278600Y-116843000D03*
X71548600Y-118113000D03*
X70278600Y-119383000D03*
%TD*%
D26*
%TO.C,D1*%
X106500000Y-122250000D03*
X106500000Y-125750000D03*
%TD*%
D27*
%TO.C,U1*%
X119190000Y-102190000D03*
D28*
X119190000Y-104730000D03*
X119190000Y-107270000D03*
X119190000Y-109810000D03*
X126810000Y-109810000D03*
X126810000Y-107270000D03*
X126810000Y-104730000D03*
X126810000Y-102190000D03*
%TD*%
D29*
%TO.C,D2*%
X77778600Y-111763000D03*
D30*
X77778600Y-121923000D03*
%TD*%
D13*
%TO.C,R3*%
X94620000Y-117917500D03*
D14*
X102240000Y-117917500D03*
%TD*%
D13*
%TO.C,R12*%
X154000000Y-125000000D03*
D14*
X154000000Y-132620000D03*
%TD*%
D13*
%TO.C,R4*%
X102430000Y-121917500D03*
D14*
X94810000Y-121917500D03*
%TD*%
M02*
