M48
; DRILL file {KiCad (6.0.2)} date Sun Mar 20 13:20:20 2022
; FORMAT={-:-/ absolute / inch / decimal}
; #@! TF.CreationDate,2022-03-20T13:20:20+09:00
; #@! TF.GenerationSoftware,Kicad,Pcbnew,(6.0.2)
; #@! TF.FileFunction,Plated,1,2,PTH
FMAT,2
INCH
; #@! TA.AperFunction,Plated,PTH,ComponentDrill
T1C0.0276
; #@! TA.AperFunction,Plated,PTH,ComponentDrill
T2C0.0315
; #@! TA.AperFunction,Plated,PTH,ComponentDrill
T3C0.0320
; #@! TA.AperFunction,Plated,PTH,ComponentDrill
T4C0.0340
; #@! TA.AperFunction,Plated,PTH,ComponentDrill
T5C0.0394
; #@! TA.AperFunction,Plated,PTH,ComponentDrill
T6C0.0433
; #@! TA.AperFunction,Plated,PTH,ComponentDrill
T7C0.0440
; #@! TA.AperFunction,Plated,PTH,ComponentDrill
T8C0.0469
%
G90
G05
T1
X2.3216Y-4.6001
X2.57Y-4.7454
X2.57Y-5.0454
X2.6216Y-4.6001
X2.8653Y-4.8954
X2.8653Y-5.1954
X3.7205Y-4.4849
X3.7252Y-4.6424
X3.7327Y-4.3275
X3.7327Y-4.7999
X3.7327Y-4.9574
X4.0205Y-4.4849
X4.0252Y-4.6424
X4.0327Y-4.3275
X4.0327Y-4.7999
X4.0327Y-4.9574
X4.4169Y-4.8819
X4.4169Y-5.0591
X4.7169Y-4.8819
X4.7169Y-5.0591
X4.85Y-4.8819
X4.8697Y-5.0591
X5.15Y-4.8819
X5.1697Y-5.0591
X5.1969Y-4.0626
X5.1969Y-4.3626
X5.4331Y-4.0626
X5.4331Y-4.3626
X6.063Y-4.9213
X6.063Y-5.2213
X6.7398Y-4.4807
X7.0398Y-4.4807
T2
X3.1606Y-5.0529
X3.1606Y-5.1907
X3.552Y-5.2564
X3.652Y-5.2564
X3.752Y-5.2564
X3.952Y-5.2564
X4.052Y-5.2564
X4.152Y-5.2564
X4.252Y-5.2564
T3
X2.7669Y-4.6001
X2.7669Y-4.7001
X2.8169Y-4.6501
T4
X4.6925Y-4.0232
X4.6925Y-4.1232
X4.6925Y-4.2232
X4.6925Y-4.3232
X4.9925Y-4.0232
X4.9925Y-4.1232
X4.9925Y-4.2232
X4.9925Y-4.3232
X5.3224Y-4.6638
X5.3224Y-4.7638
X5.3224Y-4.8638
X5.6224Y-4.6638
X5.6224Y-4.7638
X5.6224Y-4.8638
T5
X4.25Y-4.0
X4.25Y-4.5906
X4.5472Y-4.6552
X5.1378Y-4.6552
T6
X3.0621Y-4.4001
X3.0621Y-4.8001
T7
X6.3641Y-4.7123
X6.3641Y-4.8123
X6.3641Y-4.9123
X6.6397Y-4.7123
X6.6397Y-4.8123
X6.6397Y-4.9123
X6.9153Y-4.7123
X6.9153Y-4.8123
X6.9153Y-4.9123
T8
X2.2747Y-5.0907
X2.2747Y-5.1907
X3.4559Y-4.6985
X3.4559Y-4.7985
X6.1024Y-4.6638
X6.1024Y-4.7638
X6.4354Y-4.3701
X6.5354Y-4.3701
T0
M30
