%TF.GenerationSoftware,KiCad,Pcbnew,(6.0.2)*%
%TF.CreationDate,2022-03-20T13:20:32+09:00*%
%TF.ProjectId,TSAL&VOLTAGE_INDICATOR (1),5453414c-2656-44f4-9c54-4147455f494e,rev?*%
%TF.SameCoordinates,Original*%
%TF.FileFunction,Copper,L2,Bot*%
%TF.FilePolarity,Positive*%
%FSLAX46Y46*%
G04 Gerber Fmt 4.6, Leading zero omitted, Abs format (unit mm)*
G04 Created by KiCad (PCBNEW (6.0.2)) date 2022-03-20 13:20:32*
%MOMM*%
%LPD*%
G01*
G04 APERTURE LIST*
G04 Aperture macros list*
%AMRoundRect*
0 Rectangle with rounded corners*
0 $1 Rounding radius*
0 $2 $3 $4 $5 $6 $7 $8 $9 X,Y pos of 4 corners*
0 Add a 4 corners polygon primitive as box body*
4,1,4,$2,$3,$4,$5,$6,$7,$8,$9,$2,$3,0*
0 Add four circle primitives for the rounded corners*
1,1,$1+$1,$2,$3*
1,1,$1+$1,$4,$5*
1,1,$1+$1,$6,$7*
1,1,$1+$1,$8,$9*
0 Add four rect primitives between the rounded corners*
20,1,$1+$1,$2,$3,$4,$5,0*
20,1,$1+$1,$4,$5,$6,$7,0*
20,1,$1+$1,$6,$7,$8,$9,0*
20,1,$1+$1,$8,$9,$2,$3,0*%
G04 Aperture macros list end*
%TA.AperFunction,ComponentPad*%
%ADD10RoundRect,0.250000X0.620000X0.845000X-0.620000X0.845000X-0.620000X-0.845000X0.620000X-0.845000X0*%
%TD*%
%TA.AperFunction,ComponentPad*%
%ADD11O,1.740000X2.190000*%
%TD*%
%TA.AperFunction,ComponentPad*%
%ADD12C,1.350000*%
%TD*%
%TA.AperFunction,ComponentPad*%
%ADD13C,1.400000*%
%TD*%
%TA.AperFunction,ComponentPad*%
%ADD14O,1.400000X1.400000*%
%TD*%
%TA.AperFunction,ComponentPad*%
%ADD15RoundRect,0.250000X0.845000X-0.620000X0.845000X0.620000X-0.845000X0.620000X-0.845000X-0.620000X0*%
%TD*%
%TA.AperFunction,ComponentPad*%
%ADD16O,2.190000X1.740000*%
%TD*%
%TA.AperFunction,ComponentPad*%
%ADD17R,2.000000X2.000000*%
%TD*%
%TA.AperFunction,ComponentPad*%
%ADD18O,2.000000X2.000000*%
%TD*%
%TA.AperFunction,ComponentPad*%
%ADD19R,1.625600X1.625600*%
%TD*%
%TA.AperFunction,ComponentPad*%
%ADD20C,1.625600*%
%TD*%
%TA.AperFunction,ComponentPad*%
%ADD21R,1.295400X1.498600*%
%TD*%
%TA.AperFunction,ComponentPad*%
%ADD22R,1.600000X1.600000*%
%TD*%
%TA.AperFunction,ComponentPad*%
%ADD23C,1.600000*%
%TD*%
%TA.AperFunction,ComponentPad*%
%ADD24RoundRect,0.250000X-0.845000X0.620000X-0.845000X-0.620000X0.845000X-0.620000X0.845000X0.620000X0*%
%TD*%
%TA.AperFunction,ComponentPad*%
%ADD25C,1.320800*%
%TD*%
%TA.AperFunction,ComponentPad*%
%ADD26R,1.371600X1.371600*%
%TD*%
%TA.AperFunction,ComponentPad*%
%ADD27C,1.371600*%
%TD*%
%TA.AperFunction,ComponentPad*%
%ADD28R,2.200000X2.200000*%
%TD*%
%TA.AperFunction,ComponentPad*%
%ADD29O,2.200000X2.200000*%
%TD*%
%TA.AperFunction,Conductor*%
%ADD30C,0.250000*%
%TD*%
G04 APERTURE END LIST*
D10*
%TO.P,J2[GRN LED],1,Pin_1*%
%TO.N,/LV_ACTIVE_LIGHT*%
X166000000Y-111000000D03*
D11*
%TO.P,J2[GRN LED],2,Pin_2*%
%TO.N,/HV_ACTIVE_LIGHT*%
X163460000Y-111000000D03*
%TD*%
D12*
%TO.P,PS1,1,-VIN*%
%TO.N,GND*%
X90220000Y-133512500D03*
%TO.P,PS1,2,+VIN*%
%TO.N,/LV*%
X92760000Y-133512500D03*
%TO.P,PS1,3,R.C.*%
%TO.N,unconnected-(PS1-Pad3)*%
X95300000Y-133512500D03*
%TO.P,PS1,4*%
%TO.N,N/C*%
X100380000Y-133512500D03*
%TO.P,PS1,5,N.C._1*%
%TO.N,unconnected-(PS1-Pad5)*%
X102920000Y-133512500D03*
%TO.P,PS1,6,+VOUT*%
%TO.N,Net-(C2-Pad1)*%
X105460000Y-133512500D03*
%TO.P,PS1,7,-VOUT*%
%TO.N,/BATT-*%
X108000000Y-133512500D03*
%TD*%
D13*
%TO.P,R13,1*%
%TO.N,/LV*%
X171190000Y-113810000D03*
D14*
%TO.P,R13,2*%
%TO.N,Net-(Q1-Pad1)*%
X178810000Y-113810000D03*
%TD*%
D13*
%TO.P,R15,1*%
%TO.N,Net-(R14-Pad1)*%
X65278600Y-128153000D03*
D14*
%TO.P,R15,2*%
%TO.N,Net-(R15-Pad2)*%
X65278600Y-120533000D03*
%TD*%
D13*
%TO.P,R11,1*%
%TO.N,Net-(R10-Pad2)*%
X138000000Y-110810000D03*
D14*
%TO.P,R11,2*%
%TO.N,Net-(R11-Pad2)*%
X138000000Y-103190000D03*
%TD*%
D15*
%TO.P,D3,1,K*%
%TO.N,/BATT-*%
X57778600Y-131843000D03*
D16*
%TO.P,D3,2,A*%
%TO.N,Net-(D3-Pad2)*%
X57778600Y-129303000D03*
%TD*%
D13*
%TO.P,R10,1*%
%TO.N,Net-(C2-Pad1)*%
X132000000Y-103190000D03*
D14*
%TO.P,R10,2*%
%TO.N,Net-(R10-Pad2)*%
X132000000Y-110810000D03*
%TD*%
D15*
%TO.P,D4,1,K*%
%TO.N,/LV*%
X155000000Y-121000000D03*
D16*
%TO.P,D4,2,A*%
%TO.N,GND*%
X155000000Y-118460000D03*
%TD*%
D13*
%TO.P,R_Sense1,1*%
%TO.N,Net-(R15-Pad2)*%
X66588600Y-116843000D03*
D14*
%TO.P,R_Sense1,2*%
%TO.N,Net-(D3-Pad2)*%
X58968600Y-116843000D03*
%TD*%
D13*
%TO.P,R5,1*%
%TO.N,Net-(C1-Pad2)*%
X94810000Y-125917500D03*
D14*
%TO.P,R5,2*%
%TO.N,/BATT-*%
X102430000Y-125917500D03*
%TD*%
D13*
%TO.P,R9,1*%
%TO.N,Net-(C1-Pad1)*%
X119810000Y-124000000D03*
D14*
%TO.P,R9,2*%
%TO.N,/BATT-*%
X112190000Y-124000000D03*
%TD*%
D17*
%TO.P,C2,1*%
%TO.N,Net-(C2-Pad1)*%
X115500000Y-118242500D03*
D18*
%TO.P,C2,2*%
%TO.N,Net-(C2-Pad2)*%
X130500000Y-118242500D03*
%TD*%
D19*
%TO.P,Q3,1,G*%
%TO.N,/LV*%
X161647700Y-119693600D03*
D20*
%TO.P,Q3,2,D*%
%TO.N,/HV_ACTIVE_LIGHT*%
X161647700Y-122233600D03*
%TO.P,Q3,3,S*%
%TO.N,GND*%
X161647700Y-124773600D03*
%TD*%
D13*
%TO.P,R1,1*%
%TO.N,/BATT+*%
X94810000Y-109917500D03*
D14*
%TO.P,R1,2*%
%TO.N,Net-(R1-Pad2)*%
X102430000Y-109917500D03*
%TD*%
D13*
%TO.P,R7,1*%
%TO.N,Net-(R6-Pad2)*%
X123690000Y-128500000D03*
D14*
%TO.P,R7,2*%
%TO.N,Net-(R7-Pad2)*%
X131310000Y-128500000D03*
%TD*%
D13*
%TO.P,R2,1*%
%TO.N,Net-(R1-Pad2)*%
X102120000Y-113917500D03*
D14*
%TO.P,R2,2*%
%TO.N,Net-(R2-Pad2)*%
X94500000Y-113917500D03*
%TD*%
D13*
%TO.P,R6,1*%
%TO.N,Net-(C2-Pad1)*%
X112190000Y-128500000D03*
D14*
%TO.P,R6,2*%
%TO.N,Net-(R6-Pad2)*%
X119810000Y-128500000D03*
%TD*%
D17*
%TO.P,C1,1*%
%TO.N,Net-(C1-Pad1)*%
X107950000Y-101600000D03*
D18*
%TO.P,C1,2*%
%TO.N,Net-(C1-Pad2)*%
X107950000Y-116600000D03*
%TD*%
D19*
%TO.P,Q1,1,G*%
%TO.N,Net-(Q1-Pad1)*%
X175647700Y-119693600D03*
D20*
%TO.P,Q1,2,D*%
%TO.N,/LV_ACTIVE_LIGHT*%
X175647700Y-122233600D03*
%TO.P,Q1,3,S*%
%TO.N,GND*%
X175647700Y-124773600D03*
%TD*%
D21*
%TO.P,U2,1*%
%TO.N,Net-(R11-Pad2)*%
X135190000Y-118460000D03*
%TO.P,U2,2*%
%TO.N,/BATT-*%
X135190000Y-121000000D03*
%TO.P,U2,3,NC*%
%TO.N,unconnected-(U2-Pad3)*%
X135190000Y-123540000D03*
%TO.P,U2,4*%
%TO.N,Net-(R12-Pad1)*%
X142810000Y-123540000D03*
%TO.P,U2,5*%
%TO.N,/LV*%
X142810000Y-121000000D03*
%TO.P,U2,6*%
%TO.N,unconnected-(U2-Pad6)*%
X142810000Y-118460000D03*
%TD*%
D13*
%TO.P,R14,1*%
%TO.N,Net-(R14-Pad1)*%
X72778600Y-124343000D03*
D14*
%TO.P,R14,2*%
%TO.N,/BATT-*%
X72778600Y-131963000D03*
%TD*%
D19*
%TO.P,Q2,1,G*%
%TO.N,/LV*%
X168647700Y-119693600D03*
D20*
%TO.P,Q2,2,D*%
%TO.N,Net-(Q1-Pad1)*%
X168647700Y-122233600D03*
%TO.P,Q2,3,S*%
%TO.N,GND*%
X168647700Y-124773600D03*
%TD*%
D13*
%TO.P,R8,1*%
%TO.N,Net-(R7-Pad2)*%
X130810000Y-124000000D03*
D14*
%TO.P,R8,2*%
%TO.N,Net-(C1-Pad1)*%
X123190000Y-124000000D03*
%TD*%
D22*
%TO.P,C3,1*%
%TO.N,/BATT-*%
X80278600Y-131843000D03*
D23*
%TO.P,C3,2*%
%TO.N,Net-(C3-Pad2)*%
X80278600Y-128343000D03*
%TD*%
D24*
%TO.P,J1,1,Pin_1*%
%TO.N,/BATT+*%
X87778600Y-119343000D03*
D16*
%TO.P,J1,2,Pin_2*%
%TO.N,/BATT-*%
X87778600Y-121883000D03*
%TD*%
D25*
%TO.P,U3,1,IN*%
%TO.N,Net-(C3-Pad2)*%
X70278600Y-116843000D03*
%TO.P,U3,2,OUT*%
%TO.N,Net-(R15-Pad2)*%
X71548600Y-118113000D03*
%TO.P,U3,3,ADJ*%
%TO.N,Net-(R14-Pad1)*%
X70278600Y-119383000D03*
%TD*%
D26*
%TO.P,U1,1,GND*%
%TO.N,/BATT-*%
X119190000Y-102190000D03*
D27*
%TO.P,U1,2,+*%
%TO.N,Net-(C1-Pad2)*%
X119190000Y-104730000D03*
%TO.P,U1,3,-*%
%TO.N,Net-(C1-Pad1)*%
X119190000Y-107270000D03*
%TO.P,U1,4,V-*%
%TO.N,/BATT-*%
X119190000Y-109810000D03*
%TO.P,U1,5,BAL*%
%TO.N,Net-(C2-Pad2)*%
X126810000Y-109810000D03*
%TO.P,U1,6,STRB*%
X126810000Y-107270000D03*
%TO.P,U1,7*%
%TO.N,Net-(R10-Pad2)*%
X126810000Y-104730000D03*
%TO.P,U1,8,V+*%
%TO.N,Net-(C2-Pad1)*%
X126810000Y-102190000D03*
%TD*%
D28*
%TO.P,D2,1,K*%
%TO.N,/BATT+*%
X77778600Y-111763000D03*
D29*
%TO.P,D2,2,A*%
%TO.N,Net-(C3-Pad2)*%
X77778600Y-121923000D03*
%TD*%
D13*
%TO.P,R3,1*%
%TO.N,Net-(R2-Pad2)*%
X94620000Y-117917500D03*
D14*
%TO.P,R3,2*%
%TO.N,Net-(R3-Pad2)*%
X102240000Y-117917500D03*
%TD*%
D13*
%TO.P,R12,1*%
%TO.N,Net-(R12-Pad1)*%
X154000000Y-125000000D03*
D14*
%TO.P,R12,2*%
%TO.N,GND*%
X154000000Y-132620000D03*
%TD*%
D13*
%TO.P,R4,1*%
%TO.N,Net-(R3-Pad2)*%
X102430000Y-121917500D03*
D14*
%TO.P,R4,2*%
%TO.N,Net-(C1-Pad2)*%
X94810000Y-121917500D03*
%TD*%
D30*
%TO.N,Net-(R3-Pad2)*%
X102240000Y-121727500D02*
X102240000Y-117917500D01*
X102430000Y-121917500D02*
X102240000Y-121727500D01*
%TO.N,Net-(C1-Pad2)*%
X107950000Y-116600000D02*
X107950000Y-115274700D01*
X107950000Y-115274700D02*
X118494700Y-104730000D01*
X118494700Y-104730000D02*
X119190000Y-104730000D01*
X94810000Y-121917500D02*
X94810000Y-125917500D01*
%TO.N,Net-(C2-Pad1)*%
X112190000Y-128500000D02*
X110472500Y-128500000D01*
X112190000Y-128500000D02*
X115500000Y-125190000D01*
X115500000Y-125190000D02*
X115500000Y-118242500D01*
X110472500Y-128500000D02*
X105460000Y-133512500D01*
%TO.N,Net-(R7-Pad2)*%
X130810000Y-124000000D02*
X130810000Y-126974700D01*
X131310000Y-128500000D02*
X131310000Y-127474700D01*
X130810000Y-126974700D02*
X131310000Y-127474700D01*
%TO.N,Net-(C1-Pad1)*%
X118161400Y-122351400D02*
X119810000Y-124000000D01*
X119190000Y-107270000D02*
X118161400Y-108298600D01*
X118161400Y-108298600D02*
X118161400Y-122351400D01*
%TO.N,Net-(R10-Pad2)*%
X131864700Y-109784700D02*
X132000000Y-109784700D01*
X126810000Y-104730000D02*
X131864700Y-109784700D01*
X132000000Y-110810000D02*
X132000000Y-109784700D01*
%TO.N,Net-(R11-Pad2)*%
X135190000Y-118460000D02*
X135190000Y-107025300D01*
X135190000Y-107025300D02*
X138000000Y-104215300D01*
X138000000Y-103190000D02*
X138000000Y-104215300D01*
%TO.N,GND*%
X155000000Y-118460000D02*
X155000000Y-119655300D01*
X159275800Y-124773600D02*
X159275800Y-122959900D01*
X159275800Y-122959900D02*
X155971200Y-119655300D01*
X159275800Y-124773600D02*
X161647700Y-124773600D01*
X154000000Y-131594700D02*
X159275800Y-126318900D01*
X155971200Y-119655300D02*
X155000000Y-119655300D01*
X154000000Y-132620000D02*
X154000000Y-131594700D01*
X159275800Y-126318900D02*
X159275800Y-124773600D01*
%TO.N,/LV*%
X128320200Y-134516800D02*
X93764300Y-134516800D01*
X171190000Y-116013200D02*
X171190000Y-113810000D01*
X142810000Y-121000000D02*
X141837000Y-121000000D01*
X168647700Y-119693600D02*
X168647700Y-118555500D01*
X141837000Y-121000000D02*
X128320200Y-134516800D01*
X93764300Y-134516800D02*
X92760000Y-133512500D01*
X168647700Y-118555500D02*
X171190000Y-116013200D01*
%TO.N,Net-(Q1-Pad1)*%
X168647700Y-122233600D02*
X171969600Y-122233600D01*
X175647700Y-119693600D02*
X174509600Y-119693600D01*
X171969600Y-122233600D02*
X174509600Y-119693600D01*
%TO.N,Net-(R14-Pad1)*%
X70933600Y-122498000D02*
X70278600Y-121843000D01*
X70278600Y-121843000D02*
X70278600Y-119383000D01*
X72778600Y-124343000D02*
X70933600Y-122498000D01*
X65278600Y-128153000D02*
X70933600Y-122498000D01*
%TO.N,Net-(R15-Pad2)*%
X65278600Y-120533000D02*
X65278600Y-119507700D01*
X66588600Y-116843000D02*
X67266000Y-117520300D01*
X67266000Y-117520300D02*
X65278600Y-119507700D01*
X67858600Y-118113000D02*
X71548600Y-118113000D01*
X67266000Y-117520300D02*
X67858600Y-118113000D01*
%TO.N,Net-(D3-Pad2)*%
X58968600Y-116843000D02*
X58968600Y-117868300D01*
X58968600Y-117868300D02*
X57778600Y-119058300D01*
X57778600Y-119058300D02*
X57778600Y-129303000D01*
%TO.N,Net-(C3-Pad2)*%
X80278600Y-125848300D02*
X80278600Y-128343000D01*
X77778600Y-123348300D02*
X80278600Y-125848300D01*
X77778600Y-121923000D02*
X77778600Y-123348300D01*
%TO.N,Net-(C2-Pad2)*%
X126810000Y-107270000D02*
X126810000Y-109810000D01*
X130500000Y-118242500D02*
X130500000Y-116917200D01*
X126810000Y-109810000D02*
X126810000Y-113227200D01*
X126810000Y-113227200D02*
X130500000Y-116917200D01*
%TO.N,/HV_ACTIVE_LIGHT*%
X163460000Y-120421300D02*
X163460000Y-111000000D01*
X161647700Y-122233600D02*
X163460000Y-120421300D01*
%TO.N,/BATT-*%
X119190000Y-109810000D02*
X120201100Y-108798900D01*
X120201100Y-104212200D02*
X119190000Y-103201100D01*
X119190000Y-102190000D02*
X119190000Y-103201100D01*
X120201100Y-108798900D02*
X120201100Y-104212200D01*
%TD*%
M02*
